<?xml version="1.0" standalone="no"?>
<!DOCTYPE svg PUBLIC "-//W3C//DTD SVG 20010904//EN"
 "http://www.w3.org/TR/2001/REC-SVG-20010904/DTD/svg10.dtd">
<svg version="1.0" xmlns="http://www.w3.org/2000/svg"
 width="766.000000pt" height="560.000000pt" viewBox="0 0 766.000000 560.000000"
 preserveAspectRatio="xMidYMid meet">

<g transform="translate(0.000000,560.000000) scale(0.100000,-0.100000)"
fill="#000000" stroke="none">
<path d="M299 5583 c11 -22 30 -38 35 -32 2 2 -8 15 -21 29 -23 23 -24 23 -14
3z"/>
<path d="M355 5575 c0 -14 3 -25 8 -25 4 0 7 11 7 25 0 14 -3 25 -7 25 -5 0
-8 -11 -8 -25z"/>
<path d="M6050 5585 c0 -8 2 -15 4 -15 2 0 6 7 10 15 3 8 1 15 -4 15 -6 0 -10
-7 -10 -15z"/>
<path d="M6091 5587 c-17 -17 -13 -31 4 -17 12 10 15 10 15 -3 0 -9 4 -19 10
-22 6 -4 9 5 8 19 -3 29 -20 40 -37 23z"/>
<path d="M6471 5574 c0 -11 3 -14 6 -6 3 7 2 16 -1 19 -3 4 -6 -2 -5 -13z"/>
<path d="M6506 5575 c-9 -26 -7 -32 5 -12 6 10 9 21 6 23 -2 3 -7 -2 -11 -11z"/>
<path d="M1417 5574 c-3 -5 1 -15 9 -22 16 -14 18 -5 5 17 -5 7 -11 9 -14 5z"/>
<path d="M6198 5573 c26 -5 30 -23 5 -24 -11 0 -13 -3 -5 -6 16 -6 6 -23 -15
-23 -10 0 -13 6 -9 16 4 10 1 14 -6 12 -22 -8 -19 -24 7 -36 22 -10 27 -9 41
13 20 31 12 55 -18 54 l-23 -2 23 -4z"/>
<path d="M245 5559 c-4 -6 -4 -13 -1 -16 3 -4 6 -1 6 5 0 17 19 15 37 -4 12
-12 13 -18 4 -27 -9 -9 -14 -8 -21 3 -8 13 -10 12 -10 -2 0 -21 18 -23 41 -5
15 12 15 14 -1 35 -19 24 -45 29 -55 11z"/>
<path d="M3621 5544 c0 -11 3 -14 6 -6 3 7 2 16 -1 19 -3 4 -6 -2 -5 -13z"/>
<path d="M6698 5527 c-3 -19 -2 -25 4 -19 6 6 8 18 6 28 -3 14 -5 12 -10 -9z"/>
<path d="M214 5518 c2 -9 -1 -22 -9 -28 -10 -8 -16 -7 -24 7 -6 10 -10 14 -10
8 -1 -5 9 -21 20 -35 14 -17 19 -19 15 -7 -7 22 22 36 35 16 5 -8 9 -9 9 -3 0
7 -9 22 -21 35 -14 16 -19 18 -15 7z"/>
<path d="M6726 5515 c-9 -26 -7 -32 5 -12 6 10 9 21 6 23 -2 3 -7 -2 -11 -11z"/>
<path d="M6791 5508 c-2 -25 15 -30 30 -10 13 15 12 16 -3 4 -14 -11 -17 -10
-21 5 -4 16 -5 16 -6 1z"/>
<path d="M1479 5493 c-13 -16 -12 -17 4 -4 9 7 17 15 17 17 0 8 -8 3 -21 -13z"/>
<path d="M3440 5471 c0 -6 4 -13 10 -16 6 -3 7 1 4 9 -7 18 -14 21 -14 7z"/>
<path d="M7015 5461 c-3 -5 -1 -12 5 -16 5 -3 10 1 10 9 0 18 -6 21 -15 7z"/>
<path d="M89 5444 c-11 -14 -11 -18 2 -28 9 -6 18 -18 22 -26 4 -10 6 -8 6 8
1 25 11 28 29 10 17 -17 15 -2 -4 27 -19 29 -36 32 -55 9z m36 -4 c3 -6 -1
-13 -10 -16 -19 -8 -30 0 -20 15 8 14 22 14 30 1z"/>
<path d="M2390 5443 c0 -6 8 -17 18 -24 16 -13 16 -13 2 6 -8 11 -16 22 -17
24 -2 2 -3 0 -3 -6z"/>
<path d="M1516 5432 c-3 -5 1 -9 9 -9 8 0 12 4 9 9 -3 4 -7 8 -9 8 -2 0 -6 -4
-9 -8z"/>
<path d="M7060 5436 c0 -2 7 -7 16 -10 8 -3 12 -2 9 4 -6 10 -25 14 -25 6z"/>
<path d="M25 5399 c-4 -6 -4 -13 -1 -16 3 -4 6 -1 6 5 0 19 24 14 37 -8 9 -13
9 -21 2 -26 -6 -4 -15 0 -20 7 -7 11 -9 10 -9 -3 0 -21 18 -23 41 -5 15 12 15
14 -1 35 -19 24 -45 29 -55 11z"/>
<path d="M1571 5377 c-13 -21 -12 -21 5 -5 10 10 16 20 13 22 -3 3 -11 -5 -18
-17z"/>
<path d="M2333 5372 c15 -9 27 -23 27 -31 0 -8 2 -12 5 -9 4 3 3 18 -1 33 -4
17 -9 23 -14 15 -5 -9 -9 -9 -14 -1 -4 6 -13 11 -19 11 -7 0 0 -8 16 -18z"/>
<path d="M7190 5380 c-9 -6 -10 -10 -3 -10 6 0 15 5 18 10 8 12 4 12 -15 0z"/>
<path d="M7275 5381 c-3 -5 -1 -12 5 -16 5 -3 10 1 10 9 0 18 -6 21 -15 7z"/>
<path d="M7100 5369 c0 -5 5 -7 10 -4 6 3 10 8 10 11 0 2 -4 4 -10 4 -5 0 -10
-5 -10 -11z"/>
<path d="M7242 5360 c0 -14 2 -19 5 -12 2 6 2 18 0 25 -3 6 -5 1 -5 -13z"/>
<path d="M0 5348 c0 -9 6 -18 13 -21 9 -3 9 -8 -2 -23 -14 -18 -14 -18 3 -2
17 15 17 18 2 39 -12 18 -16 19 -16 7z"/>
<path d="M2279 5341 c17 -11 -3 -25 -21 -15 -10 5 -10 4 -1 -6 9 -10 15 -10
26 -2 8 7 18 8 23 4 4 -4 2 1 -5 11 -7 9 -19 17 -25 17 -6 0 -5 -4 3 -9z"/>
<path d="M1629 5293 c-13 -16 -12 -17 4 -4 9 7 17 15 17 17 0 8 -8 3 -21 -13z"/>
<path d="M2233 5295 c0 -8 4 -12 8 -9 4 2 9 -2 12 -8 2 -7 7 -10 11 -7 3 3 -2
13 -12 22 -15 14 -19 15 -19 2z"/>
<path d="M1641 5276 c-9 -11 -9 -16 0 -22 7 -4 9 -3 5 4 -3 5 0 12 6 15 7 2
10 7 7 11 -3 4 -12 0 -18 -8z"/>
<path d="M2192 5259 c2 -8 -4 -13 -14 -13 -14 1 -16 -2 -7 -17 5 -11 12 -19
15 -19 3 0 3 4 0 9 -3 5 0 14 8 20 11 9 15 9 19 -1 3 -8 6 -8 6 -2 1 6 -6 17
-15 24 -12 11 -15 11 -12 -1z"/>
<path d="M2227 5259 c7 -7 15 -10 18 -7 3 3 -2 9 -12 12 -14 6 -15 5 -6 -5z"/>
<path d="M2146 5215 c4 -8 11 -15 16 -15 6 0 5 6 -2 15 -7 8 -14 15 -16 15 -2
0 -1 -7 2 -15z"/>
<path d="M2125 5190 c10 -11 20 -20 23 -20 3 0 -3 9 -13 20 -10 11 -20 20 -23
20 -3 0 3 -9 13 -20z"/>
<path d="M2090 5186 c0 -2 8 -10 18 -17 15 -13 16 -12 3 4 -13 16 -21 21 -21
13z"/>
<path d="M2082 5144 c10 -10 20 -16 22 -13 3 3 -5 11 -17 18 -21 13 -21 12 -5
-5z"/>
<path d="M2040 5142 c0 -4 10 -13 23 -21 22 -14 22 -14 3 8 -20 22 -26 25 -26
13z"/>
<path d="M2020 5116 c0 -2 8 -10 18 -17 15 -13 16 -12 3 4 -13 16 -21 21 -21
13z"/>
<path d="M2008 5092 c9 -10 19 -17 21 -16 6 5 -20 34 -30 34 -5 0 -1 -8 9 -18z"/>
<path d="M1980 5083 c0 -6 8 -17 18 -24 16 -13 16 -13 2 6 -8 11 -16 22 -17
24 -2 2 -3 0 -3 -6z"/>
<path d="M1965 5050 c10 -11 20 -20 23 -20 3 0 -3 9 -13 20 -10 11 -20 20 -23
20 -3 0 3 -9 13 -20z"/>
<path d="M6601 5003 c-1 -36 2 -43 18 -43 11 0 22 4 25 9 4 5 -3 7 -14 4 -14
-4 -20 0 -20 12 0 12 6 16 18 13 19 -5 29 27 11 37 -5 3 -6 -1 -3 -9 4 -10 1
-16 -9 -16 -9 0 -18 8 -20 18 -3 9 -5 -2 -6 -25z"/>
<path d="M1900 5022 c0 -4 10 -13 23 -21 22 -14 22 -14 3 8 -20 22 -26 25 -26
13z"/>
<path d="M6671 4992 c-1 -27 3 -33 16 -30 22 4 30 38 10 38 -9 0 -18 6 -20 13
-3 6 -6 -3 -6 -21z m29 -12 c0 -5 -4 -10 -10 -10 -5 0 -10 5 -10 10 0 6 5 10
10 10 6 0 10 -4 10 -10z"/>
<path d="M6732 4990 c0 -19 2 -27 5 -17 2 9 2 25 0 35 -3 9 -5 1 -5 -18z"/>
<path d="M6756 5003 c-9 -22 20 -51 35 -36 8 8 6 11 -7 10 -11 -1 -19 4 -19
13 0 8 8 14 17 14 10 -1 15 2 12 7 -9 15 -31 10 -38 -8z"/>
<path d="M6814 4990 c1 -21 6 -25 36 -27 19 -1 27 1 18 3 -9 3 -19 17 -21 32
l-4 27 -2 -27 c-1 -34 -18 -37 -24 -5 -3 19 -4 19 -3 -3z"/>
<path d="M6964 5009 c-3 -6 -2 -15 3 -20 5 -5 9 -1 9 11 0 23 -2 24 -12 9z"/>
<path d="M6993 5000 c-1 -11 2 -22 8 -25 5 -4 9 5 9 19 0 30 -15 35 -17 6z"/>
<path d="M7051 4993 c-1 -31 1 -33 34 -33 33 0 35 2 34 33 -2 30 -2 30 -6 5
-2 -16 -8 -28 -13 -28 -5 0 -11 12 -13 28 l-4 27 -2 -27 c0 -16 -5 -28 -10
-28 -5 0 -12 12 -14 28 -4 25 -4 25 -6 -5z"/>
<path d="M7142 4990 c0 -19 2 -27 5 -17 4 15 7 16 21 6 14 -11 15 -11 5 1 -10
11 -10 17 0 29 10 14 10 14 -5 3 -13 -10 -17 -10 -21 0 -3 7 -5 -3 -5 -22z"/>
<path d="M7200 4996 c0 -31 18 -43 36 -24 19 18 8 48 -17 48 -13 0 -19 -7 -19
-24z m35 -6 c0 -7 -6 -15 -12 -17 -8 -3 -13 4 -13 17 0 13 5 20 13 18 6 -3 12
-11 12 -18z"/>
<path d="M7268 4997 c-3 -19 -2 -25 4 -19 6 6 8 18 6 28 -3 14 -5 12 -10 -9z"/>
<path d="M7298 4995 c2 -14 6 -25 8 -25 2 0 4 11 4 25 0 14 -4 25 -9 25 -4 0
-6 -11 -3 -25z"/>
<path d="M7336 4999 c-16 -15 -17 -22 -7 -32 10 -9 11 -8 6 6 -5 12 -2 17 9
17 9 0 16 7 16 15 0 18 0 18 -24 -6z"/>
<path d="M1840 4990 c0 -5 5 -10 10 -10 6 0 10 5 10 10 0 6 -4 10 -10 10 -5 0
-10 -4 -10 -10z"/>
<path d="M1894 4981 c20 -22 26 -25 26 -13 0 4 -10 13 -22 21 -23 14 -23 14
-4 -8z"/>
<path d="M6904 4989 c-3 -6 -1 -16 5 -22 9 -9 11 -8 6 5 -4 11 0 18 12 21 15
4 16 5 1 6 -9 0 -20 -4 -24 -10z"/>
<path d="M1811 4932 c13 -16 26 -28 28 -26 2 2 -1 9 -7 16 -6 7 -10 18 -11 23
0 6 -8 12 -17 14 -14 2 -13 -2 7 -27z"/>
<path d="M6452 4865 c0 -16 2 -22 5 -12 2 9 2 23 0 30 -3 6 -5 -1 -5 -18z"/>
<path d="M6528 4883 c7 -3 16 -2 19 1 4 3 -2 6 -13 5 -11 0 -14 -3 -6 -6z"/>
<path d="M6572 4848 l1 -43 4 38 c3 24 9 37 19 37 17 0 18 -21 2 -39 -11 -11
-10 -13 2 -9 8 3 15 16 15 29 0 17 -6 25 -22 27 -21 3 -23 0 -21 -40z"/>
<path d="M6637 4884 c-13 -13 -7 -42 10 -48 21 -8 36 6 31 30 -3 19 -29 30
-41 18z m33 -25 c0 -24 -23 -21 -28 4 -2 10 3 17 12 17 10 0 16 -9 16 -21z"/>
<path d="M6711 4874 c0 -11 3 -14 6 -6 3 7 2 16 -1 19 -3 4 -6 -2 -5 -13z"/>
<path d="M6802 4865 c0 -16 2 -22 5 -12 2 9 2 23 0 30 -3 6 -5 -1 -5 -18z"/>
<path d="M6831 4862 c-1 -27 3 -33 16 -30 22 4 30 38 10 38 -9 0 -18 6 -20 13
-3 6 -6 -3 -6 -21z m29 -12 c0 -5 -4 -10 -10 -10 -5 0 -10 5 -10 10 0 6 5 10
10 10 6 0 10 -4 10 -10z"/>
<path d="M6892 4865 c0 -16 2 -22 5 -12 2 9 2 23 0 30 -3 6 -5 -1 -5 -18z"/>
<path d="M6924 4869 c1 -33 21 -34 23 -1 1 16 -2 20 -7 12 -6 -10 -9 -9 -13 1
-2 8 -4 2 -3 -12z"/>
<path d="M7001 4861 c-1 -24 2 -32 9 -25 7 7 7 19 1 35 -9 23 -10 22 -10 -10z"/>
<path d="M7027 4883 c-4 -3 -7 -11 -7 -17 0 -6 5 -5 12 2 6 6 9 14 7 17 -3 3
-9 2 -12 -2z"/>
<path d="M7067 4883 c-11 -10 -8 -41 4 -49 6 -3 16 -1 22 5 9 9 8 11 -5 6 -14
-5 -18 -2 -18 13 0 11 8 23 18 25 14 4 14 5 1 6 -9 0 -19 -2 -22 -6z"/>
<path d="M7122 4860 c0 -19 2 -27 5 -17 4 15 7 16 21 6 14 -11 15 -11 5 1 -10
11 -10 17 0 29 10 14 10 14 -5 3 -13 -10 -17 -10 -21 0 -3 7 -5 -3 -5 -22z"/>
<path d="M7176 4877 c3 -10 9 -15 12 -12 3 3 0 11 -7 18 -10 9 -11 8 -5 -6z"/>
<path d="M7210 4888 c0 -3 -7 -22 -15 -42 -8 -20 -13 -36 -10 -36 9 0 37 71
31 78 -3 3 -6 3 -6 0z"/>
<path d="M7233 4874 c-3 -8 2 -22 11 -30 9 -8 11 -9 6 -2 -15 18 -12 36 8 41
16 4 16 5 -1 6 -10 0 -20 -6 -24 -15z"/>
<path d="M7294 4875 c-3 -8 -4 -20 -1 -27 3 -7 6 -3 6 9 1 12 9 24 19 26 16 4
16 5 -1 6 -10 0 -20 -6 -23 -14z"/>
<path d="M7360 4865 c0 -14 2 -25 4 -25 2 0 6 11 8 25 3 14 1 25 -3 25 -5 0
-9 -11 -9 -25z"/>
<path d="M7436 4866 c2 -14 -1 -26 -8 -29 -8 -2 -7 -3 2 -3 17 1 28 56 11 56
-5 0 -8 -11 -5 -24z"/>
<path d="M6514 4859 c-3 -6 -1 -16 5 -22 9 -9 11 -8 6 5 -4 11 0 18 12 21 15
4 16 5 1 6 -9 0 -20 -4 -24 -10z"/>
<path d="M6695 4842 c-3 -3 -5 -12 -5 -21 0 -13 2 -14 9 -2 5 8 18 12 30 8 12
-3 21 -2 21 3 0 9 -47 20 -55 12z"/>
<path d="M4534 4808 c-13 -16 -14 -19 -2 -10 9 7 18 9 20 4 1 -4 14 -5 28 -1
l25 7 -28 1 c-16 1 -26 5 -22 11 11 18 -1 11 -21 -12z"/>
<path d="M6956 4718 c-18 -10 -18 -11 5 -23 15 -9 30 -10 41 -4 13 7 18 4 21
-14 4 -19 4 -18 6 5 1 18 -6 31 -18 38 -24 12 -31 12 -55 -2z"/>
<path d="M4620 4695 c-11 -13 -10 -14 4 -9 9 3 16 10 16 15 0 13 -6 11 -20 -6z"/>
<path d="M4660 4680 c-8 -5 -12 -12 -9 -15 4 -3 12 1 19 10 14 17 11 19 -10 5z"/>
<path d="M6980 4670 c-23 -7 -23 -8 -3 -9 12 -1 25 4 28 9 3 6 5 10 3 9 -2 -1
-14 -5 -28 -9z"/>
<path d="M4694 4625 c-3 -8 -4 -20 -2 -27 3 -7 7 -1 10 15 6 29 1 36 -8 12z"/>
<path d="M4791 4584 c0 -11 3 -14 6 -6 3 7 2 16 -1 19 -3 4 -6 -2 -5 -13z"/>
<path d="M4855 4579 c-4 -6 -5 -12 -2 -15 2 -3 7 2 10 11 7 17 1 20 -8 4z"/>
<path d="M4816 4553 c-6 -14 -5 -15 5 -6 7 7 10 15 7 18 -3 3 -9 -2 -12 -12z"/>
<path d="M5021 4544 c0 -11 3 -14 6 -6 3 7 2 16 -1 19 -3 4 -6 -2 -5 -13z"/>
<path d="M5081 4514 c0 -11 3 -14 6 -6 3 7 2 16 -1 19 -3 4 -6 -2 -5 -13z"/>
<path d="M5146 4515 c-3 -8 -1 -15 4 -15 6 0 10 7 10 15 0 8 -2 15 -4 15 -2 0
-6 -7 -10 -15z"/>
<path d="M3401 4463 c-1 -36 2 -43 18 -43 11 0 22 4 25 9 4 5 -3 7 -14 4 -14
-4 -20 0 -20 12 0 12 6 16 18 13 19 -5 29 27 11 37 -5 3 -6 -1 -3 -9 4 -10 1
-16 -9 -16 -9 0 -18 8 -20 18 -3 9 -5 -2 -6 -25z"/>
<path d="M3470 4472 c0 -4 9 -8 20 -8 11 0 20 4 20 8 0 4 -9 8 -20 8 -11 0
-20 -4 -20 -8z"/>
<path d="M3545 4471 c19 -9 19 -10 -2 -10 -13 -1 -23 -5 -23 -9 0 -11 22 -32
34 -32 5 0 1 7 -10 15 -18 14 -18 14 4 15 28 0 25 24 -4 27 -18 3 -18 2 1 -6z"/>
<path d="M3581 4438 c0 -24 3 -36 7 -28 4 8 14 15 22 15 17 0 26 33 12 47 -6
6 -8 0 -4 -18 4 -20 1 -25 -9 -22 -8 3 -14 15 -13 27 0 11 -3 21 -8 21 -4 0
-8 -19 -7 -42z"/>
<path d="M3650 4476 c0 -2 9 -6 20 -9 11 -3 20 -1 20 4 0 5 -9 9 -20 9 -11 0
-20 -2 -20 -4z"/>
<path d="M3710 4472 c0 -4 9 -8 20 -8 11 0 20 4 20 8 0 4 -9 8 -20 8 -11 0
-20 -4 -20 -8z"/>
<path d="M3770 4476 c0 -2 9 -6 20 -9 11 -3 18 -1 14 4 -5 9 -34 13 -34 5z"/>
<path d="M3821 4458 c-1 -31 16 -38 26 -10 6 14 8 13 14 -8 6 -22 7 -21 8 10
l0 35 -19 -23 -19 -22 -4 22 c-4 20 -4 19 -6 -4z"/>
<path d="M3917 4473 c-3 -5 -1 -17 4 -28 7 -17 8 -17 8 8 1 27 -4 34 -12 20z"/>
<path d="M3950 4472 c0 -4 9 -8 20 -8 11 0 20 4 20 8 0 4 -9 8 -20 8 -11 0
-20 -4 -20 -8z"/>
<path d="M4010 4456 c0 -16 3 -26 7 -23 3 4 13 1 21 -6 13 -10 14 -9 4 8 -27
48 -32 51 -32 21z"/>
<path d="M4097 4473 c-3 -5 -1 -17 4 -28 7 -17 8 -17 8 8 1 27 -4 34 -12 20z"/>
<path d="M4131 4451 l-1 -34 21 27 c12 15 19 30 15 33 -3 3 -9 -2 -13 -12 -6
-18 -7 -18 -14 1 -6 15 -8 11 -8 -15z"/>
<path d="M3640 4453 c0 -16 28 -36 40 -28 5 3 10 12 10 18 0 7 -4 6 -10 -3 -9
-13 -12 -12 -25 4 -8 11 -15 15 -15 9z"/>
<path d="M3760 4453 c0 -6 7 -16 15 -23 13 -11 18 -11 28 0 10 10 9 11 -2 5
-9 -5 -19 -1 -28 10 -7 11 -13 14 -13 8z"/>
<path d="M3470 4443 c0 -19 21 -27 33 -13 9 10 9 11 -2 5 -8 -4 -17 -2 -22 6
-6 9 -9 10 -9 2z"/>
<path d="M3710 4443 c0 -19 21 -27 33 -13 9 10 9 11 -2 5 -8 -4 -17 -2 -22 6
-6 9 -9 10 -9 2z"/>
<path d="M3895 4439 c-4 -6 -5 -12 -2 -15 2 -3 7 2 10 11 7 17 1 20 -8 4z"/>
<path d="M3950 4443 c0 -19 21 -27 33 -13 9 10 9 11 -2 5 -8 -4 -17 -2 -22 6
-6 9 -9 10 -9 2z"/>
<path d="M4070 4435 c0 -8 2 -15 4 -15 2 0 6 7 10 15 3 8 1 15 -4 15 -6 0 -10
-7 -10 -15z"/>
<path d="M3251 4431 c-8 -5 -15 -23 -15 -40 -1 -30 1 -31 39 -31 38 0 40 1 39
31 -1 29 -16 49 -39 49 -5 0 -16 -4 -24 -9z m49 -36 c0 -20 -5 -25 -25 -25
-20 0 -25 5 -25 25 0 20 5 25 25 25 20 0 25 -5 25 -25z"/>
<path d="M3401 4328 c1 -40 2 -41 9 -13 4 17 8 24 9 16 0 -8 3 -12 6 -10 7 8
-6 49 -16 49 -5 0 -8 -19 -8 -42z"/>
<path d="M3456 4354 c-8 -22 -8 -26 3 -19 5 3 12 -5 14 -17 3 -15 5 -9 6 15 1
38 -12 50 -23 21z"/>
<path d="M3777 4364 c-11 -11 -8 -26 3 -19 6 3 10 -1 10 -10 0 -11 -5 -15 -15
-11 -8 3 -15 2 -15 -3 0 -5 11 -11 25 -13 22 -5 25 -3 19 16 -10 33 -20 47
-27 40z"/>
<path d="M3963 4335 c0 -22 2 -30 4 -17 2 12 2 30 0 40 -3 9 -5 -1 -4 -23z"/>
<path d="M3491 4345 c0 -5 4 -19 8 -30 5 -11 4 -25 -1 -32 -7 -9 -7 -13 0 -13
18 0 22 31 7 58 -8 15 -14 23 -14 17z"/>
<path d="M3520 4335 c0 -8 2 -15 4 -15 2 0 6 7 10 15 3 8 1 15 -4 15 -6 0 -10
-7 -10 -15z"/>
<path d="M3564 4343 c15 -4 16 -7 5 -14 -10 -6 -10 -9 -1 -9 6 0 12 -5 12 -11
0 -6 -7 -8 -17 -4 -14 5 -15 3 -6 -6 16 -16 33 -2 33 27 0 19 -5 24 -22 23
-20 -1 -20 -2 -4 -6z"/>
<path d="M3612 4323 c2 -14 9 -28 16 -29 7 -1 8 0 2 3 -15 7 -12 23 5 23 8 0
15 7 15 15 0 8 -9 15 -21 15 -16 0 -20 -5 -17 -27z"/>
<path d="M3697 4343 c-3 -5 -1 -17 4 -28 7 -17 8 -17 8 8 1 27 -4 34 -12 20z"/>
<path d="M4031 4345 c0 -5 4 -19 8 -30 5 -11 4 -25 -1 -32 -7 -9 -7 -13 0 -13
18 0 22 31 7 58 -8 15 -14 23 -14 17z"/>
<path d="M4065 4339 c-4 -6 -5 -12 -2 -15 2 -3 7 2 10 11 7 17 1 20 -8 4z"/>
<path d="M4091 4323 c-1 -31 1 -33 34 -33 33 0 35 2 34 33 -2 30 -2 30 -6 5
-2 -16 -8 -28 -13 -28 -5 0 -11 12 -13 28 l-4 27 -2 -27 c0 -16 -5 -28 -10
-28 -5 0 -12 12 -14 28 -4 25 -4 25 -6 -5z"/>
<path d="M4180 4325 c0 -16 3 -25 7 -22 3 4 12 2 20 -4 20 -17 16 -1 -7 28
l-20 26 0 -28z"/>
<path d="M4267 4343 c-3 -5 -1 -17 4 -28 7 -17 8 -17 8 8 1 27 -4 34 -12 20z"/>
<path d="M4302 4325 c0 -16 2 -22 5 -12 2 9 2 23 0 30 -3 6 -5 -1 -5 -18z"/>
<path d="M4364 4319 c-3 -6 -1 -16 5 -22 9 -9 11 -8 6 5 -4 11 0 18 12 21 15
4 16 5 1 6 -9 0 -20 -4 -24 -10z"/>
<path d="M3435 4310 c-3 -5 -1 -10 4 -10 6 0 11 5 11 10 0 6 -2 10 -4 10 -3 0
-8 -4 -11 -10z"/>
<path d="M3670 4309 c0 -5 5 -7 10 -4 6 3 10 8 10 11 0 2 -4 4 -10 4 -5 0 -10
-5 -10 -11z"/>
<path d="M3860 4311 c0 -10 19 -25 25 -20 1 2 -3 10 -11 17 -8 7 -14 8 -14 3z"/>
<path d="M4240 4305 c0 -8 2 -15 4 -15 2 0 6 7 10 15 3 8 1 15 -4 15 -6 0 -10
-7 -10 -15z"/>
<path d="M5874 3806 c-3 -8 -4 -25 -2 -38 3 -17 5 -13 9 15 5 38 2 47 -7 23z"/>
<path d="M5905 3810 c3 -5 8 -10 11 -10 2 0 4 5 4 10 0 6 -5 10 -11 10 -5 0
-7 -4 -4 -10z"/>
<path d="M6302 3785 c0 -28 2 -34 7 -21 7 18 8 18 24 -5 9 -13 17 -18 17 -12
0 6 -7 16 -15 23 -14 11 -14 15 2 34 18 21 18 21 -4 3 -21 -18 -21 -18 -26 0
-3 10 -5 0 -5 -22z"/>
<path d="M6717 3813 c-4 -3 -7 -20 -6 -37 0 -26 2 -28 8 -11 l8 20 5 -20 c5
-17 6 -16 7 5 1 28 -12 54 -22 43z"/>
<path d="M5942 3775 c0 -16 2 -22 5 -12 2 9 2 23 0 30 -3 6 -5 -1 -5 -18z"/>
<path d="M6067 3793 c-11 -10 -8 -41 4 -49 6 -3 16 -1 22 5 9 9 8 11 -5 6 -14
-5 -18 -2 -18 13 0 11 8 23 18 25 14 4 14 5 1 6 -9 0 -19 -2 -22 -6z"/>
<path d="M6182 3775 c0 -16 2 -22 5 -12 2 9 2 23 0 30 -3 6 -5 -1 -5 -18z"/>
<path d="M6223 3793 c18 -5 18 -5 0 -18 -15 -11 -16 -16 -5 -27 11 -11 12 -10
7 5 -8 19 10 24 18 5 3 -7 6 -1 6 15 1 22 -3 27 -21 26 -19 -1 -19 -2 -5 -6z"/>
<path d="M6383 3793 c9 -2 17 -14 17 -25 0 -15 -4 -18 -17 -13 -14 5 -15 3 -6
-6 16 -16 33 -2 33 27 0 19 -5 24 -22 23 -17 -1 -19 -2 -5 -6z"/>
<path d="M6430 3776 c0 -31 18 -43 36 -24 19 18 8 48 -17 48 -13 0 -19 -7 -19
-24z m35 -6 c0 -7 -6 -15 -12 -17 -8 -3 -13 4 -13 17 0 13 5 20 13 18 6 -3 12
-11 12 -18z"/>
<path d="M6491 3772 c-1 -29 2 -33 22 -30 15 2 22 10 23 26 1 12 -2 25 -7 27
-4 3 -6 -6 -3 -20 3 -17 0 -25 -10 -25 -8 0 -16 12 -19 28 -4 25 -4 24 -6 -6z"/>
<path d="M6552 3770 l-1 -35 19 23 19 22 4 -22 c3 -15 5 -11 5 12 l1 35 -19
-23 -19 -22 -4 22 c-3 15 -5 11 -5 -12z"/>
<path d="M6680 3775 c0 -14 5 -25 10 -25 6 0 10 11 10 25 0 14 -4 25 -10 25
-5 0 -10 -11 -10 -25z"/>
<path d="M6750 3775 c0 -14 5 -25 10 -25 6 0 10 11 10 25 0 14 -4 25 -10 25
-5 0 -10 -11 -10 -25z"/>
<path d="M6004 3769 c-3 -6 -1 -16 5 -22 9 -9 11 -8 6 5 -4 11 0 18 12 21 15
4 16 5 1 6 -9 0 -20 -4 -24 -10z"/>
<path d="M5900 3750 c-9 -6 -10 -10 -3 -10 6 0 15 5 18 10 8 12 4 12 -15 0z"/>
<path d="M2428 3673 c6 -2 18 -2 25 0 6 3 1 5 -13 5 -14 0 -19 -2 -12 -5z"/>
<path d="M3082 3645 c-17 -36 -15 -40 13 -40 28 0 30 9 12 43 l-13 23 -12 -26z
m22 -10 c3 -9 0 -15 -9 -15 -9 0 -12 6 -9 15 4 8 7 15 9 15 2 0 5 -7 9 -15z"/>
<path d="M3922 3635 c0 -22 3 -31 5 -21 5 18 6 18 24 -5 10 -13 19 -19 19 -13
0 6 -7 17 -15 24 -14 11 -14 15 2 34 18 21 18 21 -4 3 -21 -18 -21 -18 -26 0
-3 10 -5 0 -5 -22z"/>
<path d="M2950 3630 c0 -13 7 -20 20 -20 13 0 20 7 20 20 0 13 -7 20 -20 20
-13 0 -20 -7 -20 -20z"/>
<path d="M3142 3620 c0 -19 2 -27 5 -17 4 15 7 16 21 6 14 -11 15 -11 5 1 -10
11 -10 17 0 29 10 14 10 14 -5 3 -13 -10 -17 -10 -21 0 -3 7 -5 -3 -5 -22z"/>
<path d="M3213 3643 c18 -5 18 -5 0 -18 -15 -11 -16 -16 -5 -27 11 -11 12 -10
7 5 -8 19 10 24 18 5 3 -7 6 -1 6 15 1 22 -3 27 -21 26 -19 -1 -19 -2 -5 -6z"/>
<path d="M3270 3631 c0 -11 -4 -23 -10 -26 -20 -12 -9 -21 20 -17 25 4 30 9
30 33 0 16 -4 29 -9 29 -4 0 -6 -11 -3 -25 3 -18 0 -25 -10 -25 -11 0 -14 7
-10 25 2 14 2 25 -2 25 -3 0 -6 -9 -6 -19z"/>
<path d="M3332 3623 c2 -14 9 -28 16 -29 7 -1 8 0 2 3 -15 7 -12 23 5 23 8 0
15 7 15 15 0 8 -9 15 -21 15 -16 0 -20 -5 -17 -27z"/>
<path d="M3390 3625 c1 -26 2 -28 11 -12 8 14 8 22 0 30 -8 8 -11 3 -11 -18z"/>
<path d="M3436 3623 c10 -40 14 -41 14 -5 0 18 -5 32 -10 32 -6 0 -8 -11 -4
-27z"/>
<path d="M3471 3621 l-1 -34 20 26 c11 14 20 29 20 34 0 4 -6 -1 -12 -12 -11
-19 -11 -19 -19 0 -6 16 -8 13 -8 -14z"/>
<path d="M3534 3630 c1 -8 10 -16 21 -17 15 -1 15 0 3 3 -9 3 -19 11 -21 17
-2 7 -3 5 -3 -3z"/>
<path d="M3594 3635 c-8 -20 2 -45 18 -44 10 0 10 2 1 6 -19 7 -16 23 5 24 14
0 14 2 -3 8 l-20 8 20 5 c17 5 17 6 2 7 -10 0 -20 -6 -23 -14z"/>
<path d="M3650 3642 c0 -4 9 -8 20 -8 11 0 20 4 20 8 0 4 -9 8 -20 8 -11 0
-20 -4 -20 -8z"/>
<path d="M3710 3626 c0 -16 3 -26 7 -23 3 4 13 1 21 -6 13 -10 14 -9 4 8 -27
48 -32 51 -32 21z"/>
<path d="M3784 3642 c19 -8 19 -9 -3 -15 -23 -6 -25 -27 -3 -35 7 -2 10 2 6
12 -3 9 -1 16 4 16 6 0 13 -8 16 -17 2 -10 4 -5 3 12 -2 22 -8 31 -22 32 -19
3 -19 3 -1 -5z"/>
<path d="M3862 3620 c0 -19 2 -27 5 -17 2 9 2 25 0 35 -3 9 -5 1 -5 -18z"/>
<path d="M4013 3643 c4 -6 -3 -13 -14 -16 -22 -6 -22 -28 -1 -35 7 -2 10 2 6
12 -3 9 -1 16 4 16 6 0 13 -8 15 -17 3 -12 5 -8 6 9 0 15 -4 30 -11 34 -6 4
-8 3 -5 -3z"/>
<path d="M4082 3625 c0 -16 2 -22 5 -12 2 9 2 23 0 30 -3 6 -5 -1 -5 -18z"/>
<path d="M4112 3623 c2 -14 9 -28 16 -29 7 -1 8 0 2 3 -15 7 -12 23 5 23 8 0
15 7 15 15 0 8 -9 15 -21 15 -16 0 -20 -5 -17 -27z"/>
<path d="M4168 3621 c-2 -17 -1 -28 3 -26 10 7 18 55 9 55 -4 0 -10 -13 -12
-29z"/>
<path d="M4202 3625 c0 -16 2 -22 5 -12 2 9 2 23 0 30 -3 6 -5 -1 -5 -18z"/>
<path d="M4228 3621 c-2 -17 -1 -28 3 -26 10 7 18 55 9 55 -4 0 -10 -13 -12
-29z"/>
<path d="M4262 3625 c0 -16 2 -22 5 -12 2 9 2 23 0 30 -3 6 -5 -1 -5 -18z"/>
<path d="M4305 3641 c16 -8 17 -10 4 -10 -27 -1 -34 -41 -8 -41 5 0 6 7 3 15
-4 8 -1 15 4 15 6 0 13 -8 16 -17 2 -10 4 -5 3 12 -2 22 -8 31 -22 32 l-20 3
20 -9z"/>
<path d="M3833 3615 c0 -8 4 -12 9 -9 5 3 6 10 3 15 -9 13 -12 11 -12 -6z"/>
<path d="M3415 3610 c-3 -5 -1 -10 4 -10 6 0 11 5 11 10 0 6 -2 10 -4 10 -3 0
-8 -4 -11 -10z"/>
<path d="M3650 3613 c0 -19 21 -27 33 -13 9 10 9 11 -2 5 -8 -4 -17 -2 -22 6
-6 9 -9 10 -9 2z"/>
<path d="M567 3603 c-4 -3 -7 -11 -7 -17 0 -6 5 -4 10 4 9 13 12 12 25 -4 8
-11 15 -15 15 -10 0 11 -20 34 -30 34 -4 0 -10 -3 -13 -7z"/>
<path d="M2421 3593 c7 -12 15 -20 18 -17 3 2 -3 12 -13 22 -17 16 -18 16 -5
-5z"/>
<path d="M13 3573 c-7 -2 -13 -20 -13 -39 0 -33 1 -34 38 -34 35 0 37 2 36 31
-1 40 -26 57 -61 42z m47 -38 c0 -20 -5 -25 -25 -25 -20 0 -25 5 -25 25 0 20
5 25 25 25 20 0 25 -5 25 -25z"/>
<path d="M442 3518 c-7 -7 -12 -17 -12 -22 0 -6 5 -3 11 7 6 9 15 14 21 11 7
-4 8 -2 4 4 -9 15 -9 15 -24 0z"/>
<path d="M384 3478 c-5 -7 -3 -8 6 -3 8 5 18 1 27 -10 7 -11 13 -14 13 -9 0
12 -21 34 -31 34 -4 0 -11 -5 -15 -12z"/>
<path d="M451 3474 c0 -11 3 -14 6 -6 3 7 2 16 -1 19 -3 4 -6 -2 -5 -13z"/>
<path d="M2406 3471 c-4 -5 3 -7 14 -4 23 6 26 13 6 13 -8 0 -17 -4 -20 -9z"/>
<path d="M397 3439 c7 -7 15 -10 18 -7 3 3 -2 9 -12 12 -14 6 -15 5 -6 -5z"/>
<path d="M340 3410 c6 -11 13 -20 16 -20 2 0 0 9 -6 20 -6 11 -13 20 -16 20
-2 0 0 -9 6 -20z"/>
<path d="M2386 3398 c3 -5 10 -6 15 -3 13 9 11 12 -6 12 -8 0 -12 -4 -9 -9z"/>
<path d="M320 3388 c0 -9 -6 -19 -12 -21 -10 -4 -10 -6 0 -6 14 -1 28 26 18
36 -3 4 -6 -1 -6 -9z"/>
<path d="M262 3360 c7 -11 19 -22 28 -25 8 -4 4 5 -9 19 -29 31 -36 33 -19 6z"/>
<path d="M3003 3340 c0 -25 2 -35 4 -22 5 23 5 23 26 5 22 -18 22 -18 5 3 -17
19 -17 21 0 39 17 19 17 19 -5 1 -20 -17 -21 -17 -26 1 -3 10 -5 -2 -4 -27z"/>
<path d="M3431 3346 c0 -22 0 -37 2 -35 1 2 11 15 22 29 14 17 15 21 3 12 -14
-11 -17 -10 -21 10 -3 14 -5 8 -6 -16z"/>
<path d="M3541 3343 c0 -29 2 -33 8 -18 7 18 4 55 -5 55 -2 0 -4 -17 -3 -37z"/>
<path d="M3593 3340 c0 -25 2 -35 4 -22 2 12 2 32 0 45 -2 12 -4 2 -4 -23z"/>
<path d="M3783 3345 c0 -22 2 -30 4 -17 2 12 2 30 0 40 -3 9 -5 -1 -4 -23z"/>
<path d="M3831 3343 c1 -33 2 -35 8 -13 l7 25 8 -22 c4 -13 11 -23 16 -23 5 0
12 10 16 23 8 21 8 21 15 -8 6 -27 7 -26 8 13 1 46 -13 57 -23 17 -4 -14 -10
-25 -15 -25 -5 0 -12 11 -15 25 -10 38 -26 30 -25 -12z"/>
<path d="M3680 3360 c0 -5 5 -10 10 -10 6 0 10 5 10 10 0 6 -4 10 -10 10 -5 0
-10 -4 -10 -10z"/>
<path d="M232 3340 c7 -11 17 -20 22 -20 5 0 1 9 -9 20 -10 11 -20 20 -22 20
-2 0 2 -9 9 -20z"/>
<path d="M3085 3351 c19 -9 19 -10 -2 -10 -13 -1 -23 -5 -23 -9 0 -11 22 -32
34 -32 5 0 1 7 -10 15 -18 14 -18 14 4 15 28 0 25 24 -4 27 -18 3 -18 2 1 -6z"/>
<path d="M3120 3335 c0 -14 2 -25 4 -25 2 0 6 11 8 25 3 14 1 25 -3 25 -5 0
-9 -11 -9 -25z"/>
<path d="M3159 3333 c5 -26 6 -26 9 -5 2 12 7 22 12 22 5 0 11 -10 13 -22 4
-20 4 -19 6 5 1 22 -3 27 -23 27 -20 0 -22 -4 -17 -27z"/>
<path d="M3222 3318 l1 -43 4 38 c4 36 15 47 28 27 4 -6 1 -19 -6 -28 -12 -16
-12 -16 4 -1 21 19 13 49 -14 49 -16 0 -19 -7 -17 -42z"/>
<path d="M3282 3330 c0 -19 2 -27 5 -17 2 9 2 25 0 35 -3 9 -5 1 -5 -18z"/>
<path d="M3311 3333 c2 -25 2 -26 6 -5 3 15 10 22 19 18 8 -3 14 -1 14 4 0 6
-9 10 -20 10 -15 0 -20 -6 -19 -27z"/>
<path d="M3370 3350 c0 -6 7 -13 15 -16 8 -4 15 -11 15 -16 0 -6 -8 -7 -17 -3
-15 5 -16 4 -5 -6 10 -11 14 -11 25 0 10 10 8 15 -6 26 -18 13 -18 13 0 18 14
4 14 5 -4 6 -13 0 -23 -4 -23 -9z"/>
<path d="M3492 3330 c0 -19 2 -27 5 -17 2 9 2 25 0 35 -3 9 -5 1 -5 -18z"/>
<path d="M3620 3350 c0 -5 6 -7 14 -4 19 7 31 -15 17 -29 -9 -9 -14 -8 -21 3
-6 9 -10 10 -10 3 0 -20 21 -26 36 -11 19 18 8 48 -17 48 -10 0 -19 -4 -19
-10z"/>
<path d="M3722 3333 c2 -14 9 -28 16 -29 7 -1 8 0 2 3 -15 7 -12 23 5 23 8 0
15 7 15 15 0 8 -9 15 -21 15 -16 0 -20 -5 -17 -27z"/>
<path d="M3930 3356 c0 -2 9 -6 20 -9 11 -3 20 -1 20 4 0 5 -9 9 -20 9 -11 0
-20 -2 -20 -4z"/>
<path d="M3992 3330 c0 -19 2 -27 5 -17 2 9 2 25 0 35 -3 9 -5 1 -5 -18z"/>
<path d="M4034 3347 c-7 -9 -5 -18 9 -32 20 -20 20 -20 9 1 -8 15 -8 24 0 32
7 7 8 12 3 12 -6 -1 -15 -6 -21 -13z"/>
<path d="M4103 3353 c4 -6 -3 -13 -14 -16 -27 -7 -20 -32 9 -33 17 -1 22 4 22
22 0 12 -5 26 -12 30 -6 4 -8 3 -5 -3z m2 -33 c-3 -5 -10 -10 -16 -10 -5 0 -9
5 -9 10 0 6 7 10 16 10 8 0 12 -4 9 -10z"/>
<path d="M2375 3340 c-3 -5 -2 -10 4 -10 5 0 13 5 16 10 3 6 2 10 -4 10 -5 0
-13 -4 -16 -10z"/>
<path d="M3920 3333 c0 -16 28 -36 40 -28 5 3 10 12 10 18 0 7 -4 6 -10 -3 -9
-13 -12 -12 -25 4 -8 11 -15 15 -15 9z"/>
<path d="M3450 3321 c0 -5 5 -13 10 -16 6 -3 10 -2 10 4 0 5 -4 13 -10 16 -5
3 -10 2 -10 -4z"/>
<path d="M190 3293 c13 -18 25 -33 27 -33 8 0 -17 38 -33 51 -11 9 -9 2 6 -18z"/>
<path d="M2870 3280 c0 -7 -8 -10 -20 -7 -13 3 -20 0 -20 -9 0 -10 13 -14 45
-14 33 0 45 4 45 15 0 8 -4 15 -9 15 -5 0 -16 3 -25 6 -9 4 -16 1 -16 -6z"/>
<path d="M170 3271 c0 -8 -8 -11 -20 -8 -11 3 -18 1 -14 -4 3 -5 11 -9 19 -9
16 0 30 18 21 27 -3 4 -6 1 -6 -6z"/>
<path d="M70 3251 c0 -6 4 -13 10 -16 6 -3 7 1 4 9 -7 18 -14 21 -14 7z"/>
<path d="M3633 3215 c0 -27 2 -38 4 -22 2 15 11 27 19 27 17 0 18 -21 2 -39
-11 -11 -10 -13 2 -9 24 7 25 49 1 55 -11 3 -22 12 -24 22 -3 9 -5 -6 -4 -34z"/>
<path d="M108 3228 c-10 -10 -14 -18 -9 -18 10 0 36 29 30 34 -2 1 -12 -6 -21
-16z"/>
<path d="M3005 3240 c-3 -6 1 -7 9 -4 21 8 21 -19 1 -36 -22 -18 -18 -30 8
-29 19 0 20 1 4 8 -17 6 -17 8 -3 20 20 17 21 51 2 51 -8 0 -18 -4 -21 -10z"/>
<path d="M3155 3240 c-8 -13 3 -30 18 -30 8 0 7 3 -2 9 -7 5 -10 14 -7 20 4 6
5 11 2 11 -3 0 -8 -4 -11 -10z"/>
<path d="M3185 3240 c3 -5 8 -10 11 -10 2 0 4 5 4 10 0 6 -5 10 -11 10 -5 0
-7 -4 -4 -10z"/>
<path d="M3354 3229 c0 -10 4 -19 8 -19 4 0 8 6 8 14 0 8 -4 17 -8 20 -4 2 -8
-4 -8 -15z"/>
<path d="M6 3231 c-3 -4 1 -17 10 -27 14 -18 15 -18 5 2 -6 12 -7 24 -4 28 3
3 4 6 0 6 -3 0 -8 -4 -11 -9z"/>
<path d="M3220 3212 c0 -17 3 -33 8 -35 9 -6 8 50 -1 60 -4 3 -7 -8 -7 -25z"/>
<path d="M3440 3230 c0 -5 5 -10 10 -10 6 0 10 5 10 10 0 6 -4 10 -10 10 -5 0
-10 -4 -10 -10z"/>
<path d="M3383 3214 c-3 -9 2 -23 13 -32 16 -15 16 -15 6 -1 -10 14 -9 17 9
22 12 3 18 10 14 16 -9 16 -35 13 -42 -5z m34 0 c-3 -3 -12 -4 -19 -1 -8 3 -5
6 6 6 11 1 17 -2 13 -5z"/>
<path d="M3482 3203 c2 -14 9 -28 16 -29 7 -1 8 0 2 3 -15 7 -12 23 5 23 8 0
15 7 15 15 0 8 -9 15 -21 15 -16 0 -20 -5 -17 -27z"/>
<path d="M3540 3219 c0 -5 5 -7 10 -4 6 3 10 8 10 11 0 2 -4 4 -10 4 -5 0 -10
-5 -10 -11z"/>
<path d="M3576 3221 c-3 -5 7 -16 22 -25 l27 -17 -22 19 c-12 11 -19 22 -16
26 4 3 4 6 0 6 -3 0 -8 -4 -11 -9z"/>
<path d="M3691 3218 c-1 -23 9 -48 21 -48 7 0 7 4 0 13 -5 6 -12 21 -15 32 -3
15 -5 16 -6 3z"/>
<path d="M3732 3200 c0 -19 2 -27 5 -17 2 9 2 25 0 35 -3 9 -5 1 -5 -18z"/>
<path d="M3760 3219 c0 -5 5 -7 10 -4 6 3 10 8 10 11 0 2 -4 4 -10 4 -5 0 -10
-5 -10 -11z"/>
<path d="M3794 3215 c-8 -19 2 -45 17 -45 8 0 8 4 -1 15 -7 8 -10 22 -6 30 3
8 3 15 0 15 -2 0 -7 -7 -10 -15z"/>
<path d="M3828 3196 c3 -23 -1 -36 -10 -39 -9 -3 -9 -4 2 -3 16 1 28 76 13 76
-5 0 -7 -15 -5 -34z"/>
<path d="M57 3208 c7 -8 11 -17 8 -19 -2 -3 5 -5 15 -5 25 0 25 0 -7 22 -20
13 -25 13 -16 2z"/>
<path d="M3083 3208 c-25 -32 -24 -38 4 -37 17 1 21 3 11 6 -21 5 -23 14 -6
31 7 7 9 12 6 12 -3 0 -10 -6 -15 -12z"/>
<path d="M3190 3198 c0 -9 -6 -19 -12 -21 -10 -4 -10 -6 0 -6 14 -1 28 26 18
36 -3 4 -6 -1 -6 -9z"/>
<path d="M3577 3179 c7 -7 15 -10 18 -7 3 3 -2 9 -12 12 -14 6 -15 5 -6 -5z"/>
<path d="M27 3165 c-4 -8 -3 -16 1 -19 4 -3 9 4 9 15 2 23 -3 25 -10 4z"/>
<path d="M2393 3163 c9 -2 23 -2 30 0 6 3 -1 5 -18 5 -16 0 -22 -2 -12 -5z"/>
<path d="M2387 3073 c-3 -5 8 -8 23 -8 15 0 26 3 23 8 -2 4 -13 7 -23 7 -10 0
-21 -3 -23 -7z"/>
<path d="M3958 2954 c-49 -26 -69 -85 -48 -140 8 -21 14 -24 22 -16 14 14 38
16 38 2 0 -5 -6 -7 -14 -4 -26 10 -27 -16 -2 -58 13 -24 30 -62 37 -86 11 -38
10 -44 -6 -55 -22 -17 -13 -53 17 -63 15 -4 26 -1 35 12 17 23 16 29 -3 49
-15 14 -15 22 -5 58 7 23 28 69 48 102 19 33 37 74 40 91 7 43 -21 92 -62 110
-43 18 -63 17 -97 -2z m115 -22 c29 -26 39 -60 27 -96 -9 -28 -14 -31 -51 -32
-38 -2 -39 -1 -20 13 45 31 9 98 -39 73 -25 -13 -26 -47 -2 -74 16 -20 16 -20
0 -7 -10 7 -27 11 -39 8 -38 -10 -47 67 -11 107 36 39 96 43 135 8z m-80 -357
c-3 -9 -8 -14 -10 -11 -3 3 -2 9 2 15 9 16 15 13 8 -4z"/>
<path d="M2385 2940 c-3 -6 1 -7 9 -4 18 7 21 14 7 14 -6 0 -13 -4 -16 -10z"/>
<path d="M2398 2903 c6 -2 18 -2 25 0 6 3 1 5 -13 5 -14 0 -19 -2 -12 -5z"/>
<path d="M2386 2871 c-3 -4 6 -6 19 -3 14 2 25 6 25 8 0 8 -39 4 -44 -5z"/>
<path d="M2418 2773 c6 -2 18 -2 25 0 6 3 1 5 -13 5 -14 0 -19 -2 -12 -5z"/>
<path d="M2 2695 c0 -16 2 -22 5 -12 2 9 2 23 0 30 -3 6 -5 -1 -5 -18z"/>
<path d="M40 2701 c0 -11 -4 -23 -10 -26 -20 -12 -9 -21 20 -17 25 4 30 9 30
33 0 16 -4 29 -9 29 -4 0 -6 -11 -3 -25 3 -18 0 -25 -10 -25 -11 0 -14 7 -10
25 2 14 2 25 -2 25 -3 0 -6 -9 -6 -19z"/>
<path d="M101 2692 c-1 -27 3 -33 16 -30 22 4 30 38 10 38 -9 0 -18 6 -20 13
-3 6 -6 -3 -6 -21z m29 -12 c0 -5 -4 -10 -10 -10 -5 0 -10 5 -10 10 0 6 5 10
10 10 6 0 10 -4 10 -10z"/>
<path d="M220 2700 c0 -13 7 -20 20 -20 13 0 20 7 20 20 0 13 -7 20 -20 20
-13 0 -20 -7 -20 -20z"/>
<path d="M4150 2644 c0 -45 0 -45 33 -42 24 2 32 8 32 23 0 13 -8 21 -22 23
-28 4 -30 22 -3 22 11 0 20 5 20 10 0 6 -13 10 -30 10 -29 0 -30 -2 -30 -46z
m50 -19 c0 -8 -7 -15 -15 -15 -8 0 -15 7 -15 15 0 8 7 15 15 15 8 0 15 -7 15
-15z"/>
<path d="M4237 2654 c-15 -15 -7 -52 13 -57 23 -6 43 15 38 40 -3 18 -38 30
-51 17z m33 -24 c0 -19 -11 -26 -23 -14 -8 8 3 34 14 34 5 0 9 -9 9 -20z"/>
<path d="M4308 2630 c-6 -38 7 -39 20 -2 l10 27 1 -27 c1 -38 21 -36 21 2 0
25 -4 30 -24 30 -19 0 -25 -6 -28 -30z"/>
<path d="M4380 2629 c0 -27 3 -30 27 -27 38 4 39 23 4 41 l-31 15 0 -29z m35
-9 c3 -5 -1 -10 -10 -10 -9 0 -13 5 -10 10 3 6 8 10 10 10 2 0 7 -4 10 -10z"/>
<path d="M4451 2634 c-1 -29 2 -32 33 -36 19 -2 39 -2 45 0 14 5 15 62 1 62
-5 0 -10 -11 -10 -25 0 -34 -18 -32 -23 3 l-4 27 -2 -27 c0 -17 -7 -28 -15
-28 -8 0 -17 12 -19 28 -4 26 -4 26 -6 -4z"/>
<path d="M4560 2651 c0 -6 7 -8 15 -5 10 4 15 0 15 -15 0 -12 -5 -21 -11 -21
-5 0 -7 5 -4 10 3 6 -1 10 -9 10 -19 0 -21 -26 -3 -33 6 -2 20 -2 30 1 27 7
19 56 -10 60 -13 2 -23 -1 -23 -7z"/>
<path d="M4626 2652 c-3 -5 -2 -18 1 -30 4 -18 8 -20 20 -10 11 9 16 9 24 -3
6 -10 9 -5 9 19 0 27 -4 32 -24 32 -14 0 -27 -4 -30 -8z m34 -12 c0 -5 -4 -10
-10 -10 -5 0 -10 5 -10 10 0 6 5 10 10 10 6 0 10 -4 10 -10z"/>
<path d="M2178 2593 c18 -2 45 -2 60 0 15 2 0 4 -33 4 -33 0 -45 -2 -27 -4z"/>
<path d="M2194 2558 c4 -19 68 -17 74 2 4 12 2 13 -9 3 -16 -16 -55 -17 -62
-3 -3 6 -4 5 -3 -2z"/>
<path d="M6070 2566 c0 -2 7 -7 16 -10 8 -3 12 -2 9 4 -6 10 -25 14 -25 6z"/>
<path d="M4150 2495 c0 -25 5 -45 10 -45 6 0 10 8 10 18 1 16 1 16 14 0 20
-28 40 -23 21 5 -13 21 -13 25 1 45 8 12 11 22 5 22 -5 0 -17 -10 -25 -22
l-16 -22 0 22 c0 12 -4 22 -10 22 -5 0 -10 -20 -10 -45z"/>
<path d="M5225 2530 c-3 -5 -1 -10 4 -10 6 0 11 -16 11 -35 0 -19 5 -35 10
-35 6 0 10 20 10 45 0 33 -4 45 -14 45 -8 0 -18 -4 -21 -10z"/>
<path d="M5300 2526 c-15 -19 -6 -46 15 -46 8 0 15 -4 15 -10 0 -5 -8 -10 -17
-10 -13 0 -14 -3 -5 -12 20 -20 43 10 40 51 -3 40 -26 52 -48 27z m32 -21 c0
-5 -5 -11 -11 -13 -6 -2 -11 4 -11 13 0 9 5 15 11 13 6 -2 11 -8 11 -13z"/>
<path d="M2207 2513 c-10 -9 -9 -41 1 -47 5 -3 8 4 8 16 -1 12 5 23 12 25 7 3
12 -5 12 -21 0 -29 27 -37 36 -11 12 30 -46 62 -69 38z m63 -29 c0 -8 -4 -14
-10 -14 -5 0 -10 9 -10 21 0 11 5 17 10 14 6 -3 10 -13 10 -21z"/>
<path d="M4237 2504 c-15 -15 -7 -52 13 -57 23 -6 43 15 38 40 -3 18 -38 30
-51 17z m33 -24 c0 -19 -11 -26 -23 -14 -8 8 3 34 14 34 5 0 9 -9 9 -20z"/>
<path d="M4300 2480 c0 -30 14 -40 24 -17 5 10 7 10 12 0 10 -23 24 -13 24 17
0 30 -14 40 -24 18 -5 -10 -7 -10 -12 0 -10 22 -24 12 -24 -18z"/>
<path d="M4380 2480 c0 -24 3 -31 9 -21 8 12 12 12 26 -3 10 -9 22 -15 28 -13
18 6 31 33 24 51 -7 19 -53 22 -60 4 -4 -10 -8 -9 -16 2 -8 12 -11 7 -11 -20z
m70 0 c0 -11 -7 -20 -15 -20 -15 0 -21 21 -8 33 12 13 23 7 23 -13z"/>
<path d="M4480 2480 c0 -29 2 -30 45 -30 43 0 45 1 45 30 0 17 -4 30 -10 30
-5 0 -10 -11 -10 -25 0 -34 -18 -32 -23 3 l-4 27 -2 -27 c-1 -35 -21 -37 -21
-3 0 14 -4 25 -10 25 -5 0 -10 -13 -10 -30z"/>
<path d="M4590 2481 c0 -31 26 -49 44 -31 7 7 5 10 -7 10 -9 0 -17 5 -17 10 0
6 7 10 15 10 8 0 15 7 15 15 0 9 -9 15 -25 15 -21 0 -25 -5 -25 -29z"/>
<path d="M4658 2483 c-2 -18 -1 -33 4 -33 4 0 8 5 8 10 0 14 27 12 33 -2 3 -7
5 3 5 22 0 19 -2 29 -5 23 -2 -7 -11 -13 -18 -13 -7 0 -15 6 -18 13 -2 6 -6
-3 -9 -20z"/>
<path d="M4732 2480 c0 -19 2 -29 5 -22 6 14 33 16 33 2 0 -5 5 -10 10 -10 6
0 10 14 10 30 0 17 -4 30 -10 30 -5 0 -10 -4 -10 -10 0 -14 -27 -12 -33 3 -3
6 -5 -4 -5 -23z"/>
<path d="M4804 2499 c-4 -7 0 -9 13 -5 14 5 19 1 19 -14 0 -11 -6 -20 -14 -20
-7 0 -10 5 -7 10 3 6 1 10 -4 10 -6 0 -11 -7 -11 -15 0 -10 10 -15 28 -15 26
0 28 3 24 30 -4 31 -33 42 -48 19z"/>
<path d="M4873 2480 c2 -31 11 -39 21 -17 5 10 7 10 12 0 10 -23 24 -13 24 17
0 27 -3 30 -30 30 -26 0 -29 -3 -27 -30z m37 10 c0 -5 -4 -10 -10 -10 -5 0
-10 5 -10 10 0 6 5 10 10 10 6 0 10 -4 10 -10z"/>
<path d="M4976 2488 c5 -13 8 -33 9 -45 0 -45 17 -26 39 45 5 13 3 22 -3 22
-6 0 -11 -8 -11 -17 -1 -17 -1 -17 -14 0 -18 24 -29 21 -20 -5z"/>
<path d="M5048 2480 c-6 -38 7 -39 20 -2 l10 27 1 -27 c1 -38 21 -36 21 2 0
25 -4 30 -24 30 -19 0 -25 -6 -28 -30z"/>
<path d="M6038 2463 c7 -3 16 -2 19 1 4 3 -2 6 -13 5 -11 0 -14 -3 -6 -6z"/>
<path d="M5150 2445 c0 -8 5 -15 10 -15 6 0 10 7 10 15 0 8 -4 15 -10 15 -5 0
-10 -7 -10 -15z"/>
<path d="M2223 2433 c20 -5 22 -23 5 -43 -7 -8 -4 -7 8 3 18 15 22 15 45 1
l24 -16 -22 20 c-28 24 -28 29 -5 35 9 3 -3 5 -28 5 -25 0 -37 -2 -27 -5z"/>
<path d="M6013 2425 c-3 -9 -3 -18 -1 -21 3 -3 8 4 11 16 6 23 -1 27 -10 5z"/>
<path d="M7393 2380 c0 -25 2 -35 4 -22 2 12 2 32 0 45 -2 12 -4 2 -4 -23z"/>
<path d="M7425 2410 c3 -5 8 -10 11 -10 2 0 4 5 4 10 0 6 -5 10 -11 10 -5 0
-7 -4 -4 -10z"/>
<path d="M7456 2387 c3 -10 9 -15 12 -12 3 3 0 11 -7 18 -10 9 -11 8 -5 -6z"/>
<path d="M7490 2398 c0 -3 -7 -22 -15 -42 -8 -20 -13 -36 -10 -36 8 0 36 73
30 78 -3 3 -5 3 -5 0z"/>
<path d="M7513 2384 c-3 -8 2 -22 11 -30 9 -8 11 -9 6 -2 -15 18 -12 36 8 41
16 4 16 5 -1 6 -10 0 -20 -6 -24 -15z"/>
<path d="M7577 2393 c-11 -10 -8 -41 4 -49 6 -3 16 -1 22 5 9 9 8 11 -5 6 -14
-5 -18 -2 -18 13 0 11 8 23 18 25 14 4 14 5 1 6 -9 0 -19 -2 -22 -6z"/>
<path d="M7632 2370 c0 -19 2 -27 5 -17 2 9 8 15 12 13 4 -3 8 1 8 9 0 8 -4
12 -8 9 -4 -2 -10 2 -12 8 -3 7 -5 -3 -5 -22z"/>
<path d="M6055 2359 c-11 -16 -1 -19 13 -3 7 8 8 14 3 14 -5 0 -13 -5 -16 -11z"/>
<path d="M2232 2330 c2 -27 6 -30 35 -30 36 0 54 23 35 42 -8 8 -9 5 -5 -10 4
-18 1 -21 -23 -19 -19 2 -30 9 -32 21 -3 14 0 17 13 13 9 -4 14 -3 10 3 -14
23 -35 10 -33 -20z"/>
<path d="M2289 2231 l44 -6 -37 -18 c-42 -20 -40 -32 7 -43 l32 -8 -40 -7
c-37 -6 -36 -6 18 -8 37 0 56 3 52 9 -3 6 -12 10 -18 10 -7 1 -25 7 -42 14
l-30 13 38 18 c20 10 37 22 37 27 0 4 -24 7 -52 6 l-53 -1 44 -6z"/>
<path d="M5988 2233 c7 -3 16 -2 19 1 4 3 -2 6 -13 5 -11 0 -14 -3 -6 -6z"/>
<path d="M3777 2171 c-4 -17 -3 -21 5 -13 5 5 8 16 6 23 -3 8 -7 3 -11 -10z"/>
<path d="M3546 2147 c3 -10 9 -15 12 -12 3 3 0 11 -7 18 -10 9 -11 8 -5 -6z"/>
<path d="M5968 2128 c5 -5 16 -8 23 -6 8 3 3 7 -10 11 -17 4 -21 3 -13 -5z"/>
<path d="M3455 2109 c-4 -6 -5 -12 -2 -15 2 -3 7 2 10 11 7 17 1 20 -8 4z"/>
<path d="M2274 2096 c-9 -24 16 -47 45 -44 20 2 26 9 26 28 0 21 -5 26 -33 28
-22 2 -34 -2 -38 -12z m66 -17 c0 -16 -5 -20 -27 -17 -17 2 -29 10 -31 21 -3
13 3 17 27 17 25 0 31 -4 31 -21z"/>
<path d="M5950 2101 c0 -6 4 -13 10 -16 6 -3 7 1 4 9 -7 18 -14 21 -14 7z"/>
<path d="M3221 2064 c0 -11 3 -14 6 -6 3 7 2 16 -1 19 -3 4 -6 -2 -5 -13z"/>
<path d="M3161 2054 c0 -11 3 -14 6 -6 3 7 2 16 -1 19 -3 4 -6 -2 -5 -13z"/>
<path d="M5980 2060 c0 -5 5 -10 11 -10 5 0 7 5 4 10 -3 6 -8 10 -11 10 -2 0
-4 -4 -4 -10z"/>
<path d="M1195 2030 c10 -11 20 -20 23 -20 3 0 -3 9 -13 20 -10 11 -20 20 -23
20 -3 0 3 -9 13 -20z"/>
<path d="M2951 2034 c0 -11 3 -14 6 -6 3 7 2 16 -1 19 -3 4 -6 -2 -5 -13z"/>
<path d="M3001 2024 c0 -11 3 -14 6 -6 3 7 2 16 -1 19 -3 4 -6 -2 -5 -13z"/>
<path d="M5948 2033 c7 -3 16 -2 19 1 4 3 -2 6 -13 5 -11 0 -14 -3 -6 -6z"/>
<path d="M2280 2021 c0 -5 15 -15 33 -22 l32 -14 -30 -6 c-27 -6 -26 -7 13 -8
23 0 42 1 42 4 0 2 -15 12 -32 22 l-33 17 30 7 c27 6 26 7 -12 8 -24 0 -43 -3
-43 -8z"/>
<path d="M6740 2005 c-12 -13 -27 -22 -31 -19 -5 3 -9 -3 -9 -12 0 -15 5 -13
29 10 21 20 30 24 34 14 3 -7 6 -3 6 10 1 28 0 28 -29 -3z"/>
<path d="M2380 2001 c0 -6 4 -13 10 -16 6 -3 7 1 4 9 -7 18 -14 21 -14 7z"/>
<path d="M585 1990 c3 -5 8 -10 11 -10 2 0 4 5 4 10 0 6 -5 10 -11 10 -5 0 -7
-4 -4 -10z"/>
<path d="M1121 1987 c-8 -11 -6 -18 12 -33 l22 -19 -18 22 c-22 25 -6 42 21
21 15 -12 16 -11 3 5 -16 21 -25 21 -40 4z"/>
<path d="M5977 1989 c7 -7 15 -10 18 -7 3 3 -2 9 -12 12 -14 6 -15 5 -6 -5z"/>
<path d="M6945 1959 c-11 -16 -1 -19 13 -3 7 8 8 14 3 14 -5 0 -13 -5 -16 -11z"/>
<path d="M532 1947 c-8 -10 -6 -13 11 -14 12 0 16 1 9 4 -6 3 -10 9 -6 14 8
14 -2 11 -14 -4z"/>
<path d="M582 1935 c0 -16 2 -22 5 -12 2 9 2 23 0 30 -3 6 -5 -1 -5 -18z"/>
<path d="M646 1943 c-6 -14 -5 -15 5 -6 7 7 10 15 7 18 -3 3 -9 -2 -12 -12z"/>
<path d="M610 1935 c0 -8 2 -15 4 -15 2 0 6 7 10 15 3 8 1 15 -4 15 -6 0 -10
-7 -10 -15z"/>
<path d="M673 1935 c-3 -9 -3 -18 -1 -21 3 -3 8 4 11 16 6 23 -1 27 -10 5z"/>
<path d="M7001 1934 c0 -11 3 -14 6 -6 3 7 2 16 -1 19 -3 4 -6 -2 -5 -13z"/>
<path d="M707 1921 c-4 -17 -3 -21 5 -13 5 5 8 16 6 23 -3 8 -7 3 -11 -10z"/>
<path d="M753 1934 c18 -6 24 -39 7 -47 -6 -3 -5 -4 2 -3 22 4 16 50 -7 53
-16 1 -16 1 -2 -3z"/>
<path d="M2313 1933 c18 -5 18 -6 1 -24 -18 -20 -6 -27 14 -7 9 9 17 7 34 -8
23 -19 23 -19 0 8 -22 24 -22 27 -5 31 10 3 0 5 -22 5 -22 0 -32 -2 -22 -5z"/>
<path d="M1018 1903 c5 -21 7 -23 10 -9 2 10 0 22 -6 28 -6 6 -7 0 -4 -19z"/>
<path d="M1051 1913 c7 -10 15 -20 16 -22 2 -2 3 3 3 11 0 9 -7 19 -16 22 -15
6 -15 4 -3 -11z"/>
<path d="M920 1905 c0 -8 9 -15 19 -15 24 0 36 16 20 26 -8 4 -9 3 -5 -4 4 -7
1 -12 -9 -12 -9 0 -13 5 -10 10 3 6 1 10 -4 10 -6 0 -11 -7 -11 -15z"/>
<path d="M7060 1909 c0 -5 5 -7 10 -4 6 3 10 8 10 11 0 2 -4 4 -10 4 -5 0 -10
-5 -10 -11z"/>
<path d="M731 1894 c0 -11 3 -14 6 -6 3 7 2 16 -1 19 -3 4 -6 -2 -5 -13z"/>
<path d="M831 1894 c0 -11 3 -14 6 -6 3 7 2 16 -1 19 -3 4 -6 -2 -5 -13z"/>
<path d="M897 1889 c4 -13 8 -18 11 -10 2 7 -1 18 -6 23 -8 8 -9 4 -5 -13z"/>
<path d="M790 1885 c0 -8 4 -15 10 -15 5 0 7 7 4 15 -4 8 -8 15 -10 15 -2 0
-4 -7 -4 -15z"/>
<path d="M860 1886 c0 -8 4 -17 9 -20 5 -4 7 3 4 14 -6 23 -13 26 -13 6z"/>
<path d="M7292 1886 c7 -8 15 -12 17 -11 5 6 -10 25 -20 25 -5 0 -4 -6 3 -14z"/>
<path d="M7231 1874 c0 -11 3 -14 6 -6 3 7 2 16 -1 19 -3 4 -6 -2 -5 -13z"/>
<path d="M7328 1857 c-3 -19 -2 -25 4 -19 6 6 8 18 6 28 -3 14 -5 12 -10 -9z"/>
<path d="M2311 1856 c-9 -11 -9 -16 0 -22 8 -4 9 -3 5 4 -4 7 -1 12 8 12 8 0
17 -6 19 -12 4 -8 6 -9 6 -2 1 6 -5 17 -13 23 -10 8 -16 8 -25 -3z"/>
<path d="M2315 1810 c3 -5 17 -10 30 -10 13 0 27 5 30 10 4 6 -8 10 -30 10
-22 0 -34 -4 -30 -10z"/>
<path d="M7390 1576 c0 -2 7 -7 16 -10 8 -3 12 -2 9 4 -6 10 -25 14 -25 6z"/>
<path d="M7318 1443 c7 -3 16 -2 19 1 4 3 -2 6 -13 5 -11 0 -14 -3 -6 -6z"/>
<path d="M5818 1423 c7 -3 16 -2 19 1 4 3 -2 6 -13 5 -11 0 -14 -3 -6 -6z"/>
<path d="M5788 1388 c5 -5 16 -8 23 -6 8 3 3 7 -10 11 -17 4 -21 3 -13 -5z"/>
<path d="M5798 1353 c7 -3 16 -2 19 1 4 3 -2 6 -13 5 -11 0 -14 -3 -6 -6z"/>
<path d="M7238 1343 c6 -2 18 -2 25 0 6 3 1 5 -13 5 -14 0 -19 -2 -12 -5z"/>
<path d="M5818 1313 c7 -3 16 -2 19 1 4 3 -2 6 -13 5 -11 0 -14 -3 -6 -6z"/>
<path d="M5808 1283 c7 -3 16 -2 19 1 4 3 -2 6 -13 5 -11 0 -14 -3 -6 -6z"/>
<path d="M7253 1273 c9 -2 23 -2 30 0 6 3 -1 5 -18 5 -16 0 -22 -2 -12 -5z"/>
<path d="M7286 1223 c-6 -14 -5 -15 5 -6 7 7 10 15 7 18 -3 3 -9 -2 -12 -12z"/>
<path d="M6623 820 c0 -25 2 -35 4 -22 2 12 2 32 0 45 -2 12 -4 2 -4 -23z"/>
<path d="M6668 825 c2 -19 6 -35 8 -35 2 0 4 16 4 35 0 19 -4 35 -8 35 -4 0
-6 -16 -4 -35z"/>
<path d="M6700 836 c0 -2 9 -6 20 -9 11 -3 20 -1 20 4 0 5 -9 9 -20 9 -11 0
-20 -2 -20 -4z"/>
<path d="M6770 821 c0 -11 -4 -23 -10 -26 -20 -12 -9 -21 20 -17 25 4 30 9 30
33 0 16 -4 29 -9 29 -4 0 -6 -11 -3 -25 3 -18 0 -25 -10 -25 -11 0 -14 7 -10
25 2 14 2 25 -2 25 -3 0 -6 -9 -6 -19z"/>
<path d="M6831 813 c-1 -26 3 -33 17 -33 10 0 21 2 24 5 8 8 -3 55 -13 55 -4
0 -6 -11 -3 -25 2 -14 0 -25 -5 -25 -5 0 -12 12 -14 28 -4 25 -4 25 -6 -5z"/>
<path d="M6958 817 c-3 -19 -2 -25 4 -19 6 6 8 18 6 28 -3 14 -5 12 -10 -9z"/>
<path d="M6988 815 c2 -14 6 -25 8 -25 2 0 4 11 4 25 0 14 -4 25 -9 25 -4 0
-6 -11 -3 -25z"/>
<path d="M7022 815 c2 -22 8 -30 22 -30 26 0 32 23 9 32 -10 3 -22 11 -26 17
-4 6 -6 -2 -5 -19z m38 -15 c0 -5 -7 -10 -15 -10 -8 0 -15 5 -15 10 0 6 7 10
15 10 8 0 15 -4 15 -10z"/>
<path d="M6690 813 c0 -16 28 -36 40 -28 5 3 10 12 10 18 0 7 -4 6 -10 -3 -9
-13 -12 -12 -25 4 -8 11 -15 15 -15 9z"/>
<path d="M6894 809 c-3 -6 -1 -16 5 -22 9 -9 11 -8 6 5 -4 11 0 18 12 21 15 4
16 5 1 6 -9 0 -20 -4 -24 -10z"/>
<path d="M6171 693 c-1 -36 2 -43 18 -43 11 0 22 4 25 9 4 5 -3 7 -14 4 -14
-4 -20 0 -20 12 0 12 6 16 20 12 11 -3 18 -1 14 4 -3 5 -11 9 -19 9 -7 0 -16
8 -18 18 -3 9 -5 -2 -6 -25z"/>
<path d="M6704 704 c-4 -17 -1 -31 10 -42 15 -15 17 -15 34 3 16 18 16 18 -1
5 -12 -9 -21 -10 -28 -3 -18 18 -6 48 18 47 12 0 20 3 17 8 -12 19 -44 7 -50
-18z"/>
<path d="M6848 723 c7 -3 16 -2 19 1 4 3 -2 6 -13 5 -11 0 -14 -3 -6 -6z"/>
<path d="M3079 688 c-3 -22 -1 -34 4 -29 5 5 7 21 5 37 -3 27 -4 26 -9 -8z"/>
<path d="M3123 685 c0 -22 2 -30 4 -17 2 12 2 30 0 40 -3 9 -5 -1 -4 -23z"/>
<path d="M6242 668 l1 -43 4 38 c4 36 15 47 28 27 4 -6 1 -19 -6 -28 -12 -16
-12 -16 4 -1 21 19 13 49 -14 49 -16 0 -19 -7 -17 -42z"/>
<path d="M6307 703 c-11 -10 -8 -41 4 -49 16 -9 43 21 36 40 -7 16 -28 21 -40
9z m31 -20 c-5 -25 -28 -28 -28 -4 0 12 6 21 16 21 9 0 14 -7 12 -17z"/>
<path d="M6377 703 c-3 -5 -7 -24 -11 -43 -3 -19 -3 -29 0 -22 3 6 14 12 24
12 10 0 21 -6 24 -12 3 -7 3 5 -1 27 -7 48 -13 58 -13 22 0 -15 -5 -27 -11
-27 -7 0 -9 10 -7 25 5 25 3 32 -5 18z"/>
<path d="M6438 704 c-10 -9 4 -44 14 -38 6 4 14 0 19 -7 6 -10 9 -4 9 19 0 17
-4 32 -10 32 -5 0 -7 -7 -3 -16 4 -12 2 -15 -8 -12 -8 3 -13 11 -11 17 2 12
-1 14 -10 5z"/>
<path d="M6531 696 c-1 -13 -6 -16 -18 -11 -15 5 -14 3 2 -13 21 -20 31 -9 22
26 -4 15 -5 15 -6 -2z"/>
<path d="M6575 701 c19 -9 19 -10 -2 -10 -13 -1 -23 -5 -23 -9 0 -11 22 -32
34 -32 5 0 1 7 -10 15 -18 14 -18 14 4 15 28 0 25 24 -4 27 -18 3 -18 2 1 -6z"/>
<path d="M6611 688 c-1 -31 16 -38 26 -10 6 14 8 13 14 -8 6 -22 7 -21 8 10
l0 35 -19 -23 -19 -22 -4 22 c-4 20 -4 19 -6 -4z"/>
<path d="M6774 695 c-9 -22 22 -53 37 -38 15 15 7 47 -14 51 -9 2 -20 -4 -23
-13z m36 -16 c0 -24 -23 -21 -28 4 -2 10 3 17 12 17 10 0 16 -9 16 -21z"/>
<path d="M6830 691 c0 -10 7 -24 15 -31 15 -13 35 -6 35 13 0 8 -3 7 -9 -2
-11 -16 -31 -6 -31 16 0 10 6 14 20 10 11 -3 20 -1 20 4 0 5 -11 9 -25 9 -18
0 -25 -5 -25 -19z"/>
<path d="M6914 702 c19 -8 19 -9 -3 -15 -23 -6 -25 -29 -3 -33 7 -1 8 0 2 3
-11 5 -4 23 10 23 5 0 11 -8 14 -17 2 -10 4 -5 3 12 -2 22 -8 31 -22 32 -19 3
-19 3 -1 -5z"/>
<path d="M6962 685 c0 -16 2 -24 5 -17 4 10 9 9 20 -5 13 -17 13 -17 4 3 -7
15 -7 25 2 34 10 12 9 12 -5 2 -13 -10 -17 -10 -21 0 -3 7 -5 0 -5 -17z"/>
<path d="M7047 703 c-3 -5 -1 -17 4 -28 7 -17 8 -17 8 8 1 27 -4 34 -12 20z"/>
<path d="M3152 675 c0 -16 2 -24 5 -17 4 10 9 10 23 -3 22 -20 40 -12 40 16 0
24 -25 35 -44 20 -11 -9 -15 -9 -19 1 -3 7 -5 0 -5 -17z m58 -6 c0 -24 -23
-21 -28 4 -2 10 3 17 12 17 10 0 16 -9 16 -21z"/>
<path d="M3252 670 c0 -19 2 -27 5 -17 2 9 2 25 0 35 -3 9 -5 1 -5 -18z"/>
<path d="M3294 685 c-7 -17 12 -45 29 -45 6 0 2 7 -9 15 -17 13 -17 14 -2 15
21 0 32 16 17 26 -8 4 -9 3 -5 -4 4 -7 1 -12 -9 -12 -9 0 -13 5 -10 10 3 6 4
10 0 10 -3 0 -8 -7 -11 -15z"/>
<path d="M3350 660 c0 -22 2 -40 4 -40 2 0 6 18 8 40 2 22 0 40 -4 40 -5 0 -8
-18 -8 -40z"/>
<path d="M3386 687 c3 -9 1 -24 -6 -32 -8 -9 -8 -15 -2 -15 16 0 26 40 12 54
-8 8 -10 7 -4 -7z"/>
<path d="M3443 693 c4 -6 -3 -13 -14 -16 -27 -7 -20 -32 9 -33 17 -1 22 4 22
22 0 12 -5 26 -12 30 -6 4 -8 3 -5 -3z m2 -33 c-3 -5 -10 -10 -16 -10 -5 0 -9
5 -9 10 0 6 7 10 16 10 8 0 12 -4 9 -10z"/>
<path d="M3472 675 c0 -16 2 -22 5 -12 2 9 2 23 0 30 -3 6 -5 -1 -5 -18z"/>
<path d="M3512 670 c0 -19 2 -27 5 -17 2 9 2 25 0 35 -3 9 -5 1 -5 -18z"/>
<path d="M3540 696 c0 -2 9 -6 20 -9 11 -3 18 -1 14 4 -5 9 -34 13 -34 5z"/>
<path d="M3590 677 c0 -17 4 -26 10 -22 6 4 19 1 28 -7 15 -12 16 -11 3 5 -11
14 -11 20 -1 32 8 9 8 15 2 15 -6 0 -13 -6 -15 -12 -4 -10 -8 -9 -16 2 -9 12
-11 9 -11 -13z"/>
<path d="M3683 693 c4 -6 -3 -13 -14 -16 -27 -7 -20 -32 9 -33 17 -1 22 4 22
22 0 12 -5 26 -12 30 -6 4 -8 3 -5 -3z m2 -33 c-3 -5 -10 -10 -16 -10 -5 0 -9
5 -9 10 0 6 7 10 16 10 8 0 12 -4 9 -10z"/>
<path d="M3719 698 c0 -2 -2 -15 -3 -30 -1 -22 1 -25 12 -16 10 9 16 8 23 -3
6 -10 8 -4 8 21 -1 19 -3 27 -6 17 -5 -19 -30 -17 -25 2 2 9 -6 17 -9 9z"/>
<path d="M3804 671 c1 -18 8 -27 28 -32 26 -7 27 -6 21 24 -8 42 -13 47 -13
14 0 -33 -27 -37 -33 -4 -4 20 -4 20 -3 -2z"/>
<path d="M3874 685 c-8 -20 2 -45 18 -44 10 0 10 2 1 6 -18 7 -16 23 2 23 8 0
15 7 15 15 0 8 -7 15 -15 15 -9 0 -18 -7 -21 -15z"/>
<path d="M3955 690 c3 -5 8 -10 11 -10 2 0 4 5 4 10 0 6 -5 10 -11 10 -5 0 -7
-4 -4 -10z"/>
<path d="M3992 670 c0 -19 2 -27 5 -17 4 15 7 16 21 6 14 -11 15 -11 5 1 -10
11 -10 17 0 29 10 14 10 14 -5 3 -13 -10 -17 -10 -21 0 -3 7 -5 -3 -5 -22z"/>
<path d="M4050 690 c0 -5 6 -7 14 -4 19 7 31 -15 17 -29 -9 -9 -14 -8 -21 3
-6 9 -10 10 -10 3 0 -20 21 -26 36 -11 19 18 8 48 -17 48 -10 0 -19 -4 -19
-10z"/>
<path d="M4111 672 c-1 -29 2 -33 22 -30 15 2 22 10 23 26 1 12 -2 25 -7 27
-4 3 -6 -6 -3 -20 3 -17 0 -25 -10 -25 -8 0 -16 12 -19 28 -4 25 -4 24 -6 -6z"/>
<path d="M4172 675 c2 -22 8 -30 22 -30 26 0 32 23 9 32 -10 3 -22 11 -26 17
-4 6 -6 -2 -5 -19z m38 -15 c0 -5 -7 -10 -15 -10 -8 0 -15 5 -15 10 0 6 7 10
15 10 8 0 15 -4 15 -10z"/>
<path d="M3530 673 c0 -6 7 -16 15 -23 13 -11 18 -11 28 0 10 10 9 11 -2 5 -9
-5 -19 -1 -28 10 -7 11 -13 14 -13 8z"/>
<path d="M7020 665 c0 -8 2 -15 4 -15 2 0 6 7 10 15 3 8 1 15 -4 15 -6 0 -10
-7 -10 -15z"/>
<path d="M3960 661 c0 -8 -7 -11 -17 -6 -15 5 -16 4 -5 -6 9 -10 15 -10 24 -1
6 6 9 15 5 19 -4 3 -7 1 -7 -6z"/>
<path d="M7604 648 c-19 -23 -19 -23 2 -5 11 9 24 14 27 10 4 -3 7 -1 7 5 0
19 -15 14 -36 -10z"/>
<path d="M30 654 c0 -5 -4 -26 -9 -46 -5 -21 -5 -35 0 -33 11 7 23 74 15 82
-3 4 -6 2 -6 -3z"/>
<path d="M90 632 c0 -16 -6 -22 -22 -23 -19 -1 -20 -2 -5 -6 13 -3 17 -11 14
-24 -3 -10 -1 -19 3 -19 10 0 24 79 16 87 -3 4 -6 -3 -6 -15z"/>
<path d="M4337 643 c-4 -3 -7 -20 -6 -37 0 -26 2 -28 8 -11 l8 20 5 -20 c5
-17 6 -16 7 5 1 28 -12 54 -22 43z"/>
<path d="M4300 605 c0 -14 5 -25 10 -25 6 0 10 11 10 25 0 14 -4 25 -10 25 -5
0 -10 -11 -10 -25z"/>
<path d="M4370 605 c0 -14 5 -25 10 -25 6 0 10 11 10 25 0 14 -4 25 -10 25 -5
0 -10 -11 -10 -25z"/>
<path d="M7565 620 c-3 -5 -1 -10 4 -10 6 0 11 5 11 10 0 6 -2 10 -4 10 -3 0
-8 -4 -11 -10z"/>
<path d="M114 596 c-11 -28 1 -51 26 -53 25 -3 25 -3 3 7 -22 9 -32 30 -15 30
5 0 9 7 9 15 0 19 -16 20 -23 1z"/>
<path d="M154 589 c0 -10 4 -19 8 -19 4 0 8 6 8 14 0 8 -4 17 -8 20 -4 2 -8
-4 -8 -15z"/>
<path d="M190 588 c0 -7 -3 -23 -6 -35 -4 -14 -2 -23 5 -23 7 0 10 4 6 9 -3 5
-1 12 5 16 6 4 7 11 4 17 -4 6 0 14 7 19 11 7 10 9 -3 9 -10 0 -18 -6 -18 -12z"/>
<path d="M234 582 c3 -6 2 -13 -4 -17 -6 -4 -7 -11 -4 -17 4 -6 0 -15 -7 -20
-12 -8 -11 -9 1 -5 8 2 15 10 15 18 0 8 4 19 8 26 4 6 2 15 -4 19 -7 4 -9 3
-5 -4z"/>
<path d="M3064 576 c-3 -8 -4 -25 -2 -38 3 -17 5 -13 9 15 5 38 2 47 -7 23z"/>
<path d="M3095 580 c3 -5 8 -10 11 -10 2 0 4 5 4 10 0 6 -5 10 -11 10 -5 0 -7
-4 -4 -10z"/>
<path d="M3480 555 c0 -19 2 -35 4 -35 2 0 6 16 8 35 2 19 0 35 -4 35 -4 0 -8
-16 -8 -35z"/>
<path d="M3533 550 c0 -25 2 -35 4 -22 2 12 2 32 0 45 -2 12 -4 2 -4 -23z"/>
<path d="M3963 555 c0 -22 2 -30 4 -17 2 12 2 30 0 40 -3 9 -5 -1 -4 -23z"/>
<path d="M271 566 c-18 -21 -10 -51 14 -52 15 -1 16 0 3 3 -22 5 -24 42 -2 50
9 3 20 0 26 -8 8 -12 9 -11 5 1 -5 21 -31 24 -46 6z"/>
<path d="M341 560 c-1 -8 -4 -26 -7 -40 -5 -20 -3 -22 5 -10 10 13 13 12 27
-5 16 -20 16 -20 9 3 -5 17 -1 28 12 39 15 13 14 12 -9 -1 -26 -15 -27 -15
-31 7 -2 12 -5 15 -6 7z"/>
<path d="M3131 543 c-1 -26 3 -33 17 -33 10 0 21 3 25 6 8 8 -3 34 -14 34 -4
0 -6 -7 -3 -15 4 -8 1 -15 -4 -15 -6 0 -13 12 -15 28 -4 25 -4 25 -6 -5z"/>
<path d="M3194 559 c-3 -6 -2 -15 3 -20 5 -5 9 -1 9 11 0 23 -2 24 -12 9z"/>
<path d="M3223 550 c-1 -11 2 -22 8 -25 5 -4 9 5 9 19 0 30 -15 35 -17 6z"/>
<path d="M3268 545 c2 -14 6 -25 8 -25 2 0 4 11 4 25 0 14 -4 25 -9 25 -4 0
-6 -11 -3 -25z"/>
<path d="M3312 545 c2 -22 8 -30 22 -30 26 0 32 23 9 32 -10 3 -22 11 -26 17
-4 6 -6 -2 -5 -19z m38 -15 c0 -5 -7 -10 -15 -10 -8 0 -15 5 -15 10 0 6 7 10
15 10 8 0 15 -4 15 -10z"/>
<path d="M3372 540 c0 -19 2 -27 5 -17 2 9 2 25 0 35 -3 9 -5 1 -5 -18z"/>
<path d="M3423 558 c-15 -19 -27 -44 -18 -36 4 4 15 2 23 -5 13 -10 14 -9 4 9
-8 16 -8 24 0 32 7 7 9 12 6 12 -3 0 -10 -6 -15 -12z"/>
<path d="M3562 543 c2 -14 9 -28 16 -29 7 -1 8 0 2 3 -15 7 -12 23 5 23 8 0
15 7 15 15 0 8 -9 15 -21 15 -16 0 -20 -5 -17 -27z"/>
<path d="M3632 540 c0 -19 2 -27 5 -17 2 9 2 25 0 35 -3 9 -5 1 -5 -18z"/>
<path d="M3670 530 c0 -22 2 -40 4 -40 2 0 6 18 8 40 2 22 0 40 -4 40 -5 0 -8
-18 -8 -40z"/>
<path d="M3707 550 c4 -13 0 -26 -8 -32 -12 -8 -11 -9 1 -5 18 5 26 35 11 50
-7 7 -8 3 -4 -13z"/>
<path d="M3754 562 c19 -8 19 -9 -3 -15 -23 -6 -25 -27 -3 -35 7 -2 10 2 6 12
-3 9 -1 16 4 16 6 0 13 -8 16 -17 2 -10 4 -5 3 12 -2 22 -8 31 -22 32 -19 3
-19 3 -1 -5z"/>
<path d="M3821 548 c-1 -31 16 -38 26 -10 6 14 8 13 14 -8 6 -22 7 -21 8 10
l0 35 -19 -23 -19 -22 -4 22 c-4 20 -4 19 -6 -4z"/>
<path d="M4051 542 c-1 -29 2 -33 22 -30 15 2 22 10 23 26 1 12 -2 25 -7 27
-4 3 -6 -6 -3 -20 3 -17 0 -25 -10 -25 -8 0 -16 12 -19 28 -4 25 -4 24 -6 -6z"/>
<path d="M4119 542 c-3 -20 -2 -29 4 -23 5 5 7 19 5 32 -3 20 -5 19 -9 -9z"/>
<path d="M4152 540 c0 -19 2 -27 5 -17 2 9 2 25 0 35 -3 9 -5 1 -5 -18z"/>
<path d="M4203 563 c4 -6 -3 -13 -14 -16 -27 -7 -20 -32 9 -33 17 -1 22 4 22
22 0 12 -5 26 -12 30 -6 4 -8 3 -5 -3z m2 -33 c-3 -5 -10 -10 -16 -10 -5 0 -9
5 -9 10 0 6 7 10 16 10 8 0 12 -4 9 -10z"/>
<path d="M518 548 c5 -5 16 -8 23 -6 8 3 3 7 -10 11 -17 4 -21 3 -13 -5z"/>
<path d="M412 518 c-12 -43 -7 -46 24 -17 l26 24 -7 -30 c-5 -23 -4 -26 4 -15
6 8 11 26 11 39 l0 24 -26 -24 -27 -24 7 28 c9 38 -2 34 -12 -5z"/>
<path d="M3994 539 c-3 -6 -1 -16 5 -22 9 -9 11 -8 6 5 -4 11 0 18 12 21 15 4
16 5 1 6 -9 0 -20 -4 -24 -10z"/>
<path d="M497 523 c-2 -5 -7 -20 -11 -35 -8 -33 8 -37 26 -8 18 28 26 25 22
-7 -3 -25 -2 -25 8 5 14 41 5 51 -24 26 -21 -19 -21 -19 -16 4 6 22 3 29 -5
15z"/>
<path d="M604 485 c-10 -39 0 -48 12 -10 6 19 7 35 3 35 -5 0 -11 -11 -15 -25z"/>
<path d="M643 463 c-1 -26 1 -33 7 -23 12 18 13 60 3 60 -5 0 -9 -17 -10 -37z"/>
<path d="M1131 463 c-6 -21 -11 -42 -10 -48 1 -14 21 35 26 63 6 36 -5 25 -16
-15z"/>
<path d="M686 482 c-3 -5 -8 -29 -11 -53 -6 -49 7 -28 18 29 6 31 3 41 -7 24z"/>
<path d="M719 476 c14 -17 6 -56 -11 -56 -6 0 -8 -3 -5 -6 11 -12 37 17 37 41
0 13 -7 26 -16 29 -14 5 -15 4 -5 -8z"/>
<path d="M1201 477 c-1 -10 -11 -22 -23 -27 -18 -7 -19 -9 -5 -9 13 -1 16 -7
12 -28 -2 -16 2 -8 10 17 8 25 13 49 11 55 -3 5 -5 2 -5 -8z"/>
<path d="M1227 443 c-4 -3 -7 -19 -7 -35 0 -23 4 -28 23 -27 16 1 18 2 5 6
-30 8 -22 31 9 25 22 -4 25 -2 20 12 -4 10 -7 20 -7 22 0 7 -36 5 -43 -3z m38
-13 c3 -5 -1 -10 -9 -10 -9 0 -16 5 -16 10 0 6 4 10 9 10 6 0 13 -4 16 -10z"/>
<path d="M1293 407 c-12 -41 -4 -53 33 -45 21 4 26 60 6 64 -7 1 -8 0 -2 -3
15 -7 12 -23 -4 -23 -8 0 -16 10 -18 23 -2 18 -5 15 -15 -16z m47 -32 c0 -3
-9 -5 -20 -5 -11 0 -20 7 -20 15 0 13 4 14 20 5 11 -6 20 -13 20 -15z"/>
<path d="M1370 391 c-5 -11 -7 -27 -4 -35 7 -17 39 -22 48 -7 4 5 -2 7 -13 4
-21 -5 -33 17 -20 38 7 11 12 12 28 2 17 -11 19 -10 15 2 -9 21 -41 19 -54 -4z"/>
<path d="M1451 400 c0 -3 -5 -20 -10 -38 -6 -20 -6 -30 0 -27 5 4 9 14 9 23 1
10 7 5 15 -13 11 -22 14 -24 12 -9 -1 11 5 29 13 40 11 15 11 16 0 7 -19 -18
-28 -16 -33 5 -3 9 -5 15 -6 12z"/>
<path d="M1517 351 c-9 -44 -3 -50 22 -20 l20 24 2 -30 1 -30 8 35 c10 43 6
48 -19 26 -19 -17 -20 -17 -23 6 -3 19 -5 18 -11 -11z"/>
<path d="M1597 341 c-8 -37 -2 -50 13 -35 5 5 6 22 2 39 l-8 30 -7 -34z"/>
<path d="M1629 343 c-10 -11 -10 -14 -1 -9 8 5 12 -1 12 -20 0 -34 5 -29 13
14 7 35 -3 41 -24 15z"/>
<path d="M1710 331 c0 -11 -3 -27 -7 -37 -4 -12 -3 -15 5 -10 7 4 12 18 12 31
0 14 7 25 18 28 13 4 11 5 -5 6 -16 1 -23 -5 -23 -18z"/>
<path d="M1755 310 c-4 -17 -5 -34 -2 -36 2 -3 7 10 11 27 8 42 0 50 -9 9z"/>
<path d="M1785 294 c-3 -25 -4 -48 -1 -52 3 -3 6 2 6 11 0 11 5 14 15 11 32
-13 62 44 33 62 -8 5 -9 2 -5 -9 9 -23 -2 -47 -20 -47 -11 0 -14 8 -11 30 3
17 1 33 -3 35 -4 3 -10 -16 -14 -41z"/>
</g>
</svg>
