<?xml version="1.0" standalone="no"?>
<!DOCTYPE svg PUBLIC "-//W3C//DTD SVG 20010904//EN"
 "http://www.w3.org/TR/2001/REC-SVG-20010904/DTD/svg10.dtd">
<svg version="1.0" xmlns="http://www.w3.org/2000/svg"
 width="286.000000pt" height="164.000000pt" viewBox="0 0 286.000000 164.000000"
 preserveAspectRatio="xMidYMid meet">

<g transform="translate(0.000000,164.000000) scale(0.100000,-0.100000)"
fill="#000000" stroke="none">
<path d="M0 820 l0 -820 610 1 c596 0 610 1 610 20 0 10 7 19 15 19 8 0 17 1
20 1 37 10 128 22 248 34 81 8 182 21 225 29 171 34 243 44 239 32 -2 -6 -15
-12 -29 -14 -21 -3 -25 -8 -24 -33 1 -18 12 -39 31 -57 l30 -27 442 -2 443 -2
0 343 0 343 -217 12 c-120 6 -276 17 -348 24 -71 7 -204 11 -295 9 -91 -2
-231 -4 -311 -6 -110 -2 -151 1 -165 11 -15 11 14 13 183 13 l201 0 6 73 c4
39 7 102 7 137 0 57 3 66 19 67 13 1 17 -3 13 -13 -3 -8 1 -14 10 -14 9 0 18
8 20 18 4 15 5 15 6 -1 0 -11 -7 -21 -18 -24 -20 -5 -35 -39 -21 -48 9 -5 5
-48 -6 -66 -4 -8 -3 -9 4 -5 8 5 12 -3 12 -24 0 -18 4 -29 10 -25 6 3 10 1 10
-4 0 -6 -5 -11 -12 -11 -6 0 -3 -7 8 -15 19 -14 19 -14 -1 -16 -11 -1 0 -5 25
-9 25 -4 52 -9 60 -11 12 -3 15 6 15 43 -1 26 3 44 7 42 4 -3 8 -15 8 -27 0
-18 2 -19 10 -7 5 8 7 23 4 33 -4 12 0 17 15 17 13 0 22 7 23 18 2 20 5 43 8
57 1 6 6 -1 10 -15 l8 -25 1 26 c1 15 8 32 16 39 13 11 15 6 15 -39 l0 -51
149 0 c83 0 152 4 155 9 3 5 8 100 12 212 4 173 3 207 -10 223 -11 14 -22 17
-42 12 -22 -6 -25 -9 -13 -17 11 -7 10 -9 -6 -9 -11 0 -26 4 -32 8 -17 11 -19
80 -3 121 11 30 14 31 23 15 18 -32 71 -74 93 -74 24 0 42 -31 46 -77 1 -7 4
-13 8 -13 3 0 4 -15 2 -34 -2 -18 1 -37 7 -40 7 -5 11 -59 11 -156 0 -110 3
-152 13 -162 10 -10 43 -12 130 -10 114 3 117 4 117 26 0 22 -1 22 -115 18
l-115 -5 0 196 0 195 73 16 c39 9 91 20 115 23 l42 6 0 143 0 144 -820 0
c-559 0 -820 -3 -820 -10 0 -7 -6 -7 -19 0 -13 6 -222 10 -610 10 l-591 0 0
-820z m980 674 c13 -13 11 -14 -18 -12 -17 1 -32 8 -32 14 0 7 -6 15 -12 18
-7 3 1 4 17 0 17 -3 37 -12 45 -20z m1110 -39 c0 -8 -7 -15 -15 -15 -8 0 -15
7 -15 15 0 8 7 15 15 15 8 0 15 -7 15 -15z m-1099 -73 c-6 -2 -11 -10 -11 -18
0 -9 5 -12 10 -9 6 3 10 -3 10 -14 0 -26 -17 -36 -35 -21 -10 9 -12 17 -5 30
6 11 5 21 -2 28 -9 9 -8 12 6 12 9 0 15 4 12 9 -4 5 0 11 6 14 7 2 15 -3 17
-12 2 -8 -2 -17 -8 -19z m55 16 c-16 -9 -36 -3 -36 11 0 5 12 6 26 3 22 -4 24
-6 10 -14z m64 -48 c0 -5 -2 -10 -4 -10 -3 0 -8 5 -11 10 -3 6 -1 10 4 10 6 0
11 -4 11 -10z m177 -42 c-3 -8 -6 -5 -6 6 -1 11 2 17 5 13 3 -3 4 -12 1 -19z
m1048 13 c3 -5 1 -12 -5 -16 -5 -3 -10 1 -10 9 0 18 6 21 15 7z m-848 -33 c-3
-7 -5 -2 -5 12 0 14 2 19 5 13 2 -7 2 -19 0 -25z m-254 15 c-7 -2 -19 -2 -25
0 -7 3 -2 5 12 5 14 0 19 -2 13 -5z m170 -10 c-7 -2 -21 -2 -30 0 -10 3 -4 5
12 5 17 0 24 -2 18 -5z m478 -63 c4 -3 9 -18 10 -34 4 -27 1 -30 -43 -43 l-48
-14 0 -103 c0 -57 3 -118 6 -135 6 -28 10 -31 45 -31 39 0 39 0 39 -40 l0 -41
-135 2 -135 1 0 139 c0 91 4 138 10 134 6 -3 10 -35 10 -69 0 -35 3 -78 6 -95
6 -31 7 -31 70 -31 l64 0 0 103 c1 56 5 122 11 147 6 25 10 53 10 63 0 9 5 17
10 17 6 0 7 5 4 10 -4 6 5 10 20 10 24 0 25 2 20 43 l-5 42 12 -35 c6 -19 15
-37 19 -40z m-206 -2 c2 -24 -1 -51 -7 -60 -6 -13 -5 -18 4 -19 10 0 10 -2 1
-6 -7 -2 -13 -10 -13 -16 0 -7 -8 -17 -17 -23 -16 -9 -18 -7 -19 17 -1 16 2
27 5 25 4 -3 5 13 3 34 -5 48 16 116 30 102 6 -6 12 -30 13 -54z m-921 44 c2
-4 1 -14 -4 -21 -11 -19 -41 -6 -34 14 6 16 29 20 38 7z m586 -2 c0 -5 -5 -10
-11 -10 -5 0 -7 5 -4 10 3 6 8 10 11 10 2 0 4 -4 4 -10z m1140 -180 l0 -180
-130 0 -130 0 0 154 0 153 33 6 c17 4 68 15 112 26 127 31 115 48 115 -159z
m-1320 156 c0 -11 -19 -15 -25 -6 -3 5 1 10 9 10 9 0 16 -2 16 -4z m150 -12
c0 -2 -12 -4 -27 -4 -21 0 -24 3 -14 9 13 8 41 5 41 -5z m-64 -14 c0 -14 -7
-20 -23 -20 -13 0 -23 -4 -23 -10 0 -5 6 -10 14 -10 7 0 28 -3 46 -7 28 -5 32
-4 27 10 -4 11 -1 17 8 17 9 0 12 -6 9 -15 -5 -12 3 -15 40 -15 45 0 63 14 29
23 -10 3 -2 5 17 6 24 0 30 -2 21 -8 -23 -15 -2 -31 40 -31 28 0 39 4 39 15 0
10 9 15 28 14 23 -2 24 -2 5 -6 -13 -2 -23 -11 -23 -19 0 -8 -9 -14 -20 -14
-35 0 -22 -18 18 -25 29 -4 38 -11 38 -26 0 -12 -7 -19 -18 -19 -26 0 -22 -18
5 -23 12 -3 -66 -3 -173 0 -107 4 -201 6 -207 6 -7 0 -13 4 -13 9 0 5 10 8 22
6 11 -2 23 3 25 10 3 7 -5 12 -21 12 -24 0 -26 4 -26 40 0 36 3 40 25 40 14 0
25 5 25 10 0 6 -11 10 -25 10 -14 0 -25 3 -25 8 0 4 22 5 50 4 41 -3 50 -1 50
12 0 9 4 16 8 16 4 0 8 -9 8 -20z m104 -10 c0 -13 -6 -20 -17 -19 -11 0 -13 3
-5 6 6 2 12 11 12 19 0 8 2 14 5 14 3 0 5 -9 5 -20z m-520 -26 c0 -17 -22 -14
-28 4 -2 7 3 12 12 12 9 0 16 -7 16 -16z m1060 -59 c7 -8 10 -16 6 -16 -3 -1
-10 -3 -16 -4 -5 -1 -19 -3 -30 -4 -18 -1 -20 -8 -20 -86 l0 -85 30 0 c23 0
30 -4 30 -20 0 -16 -7 -20 -34 -20 l-33 0 -7 111 c-4 62 -4 115 1 119 7 7 27
14 54 19 4 0 12 -6 19 -14z m-136 -37 c3 -13 6 -62 6 -109 0 -95 -3 -99 -72
-99 -25 0 -27 3 -33 63 -4 34 -5 80 -3 101 3 36 6 40 43 52 22 6 43 12 46 13
4 1 9 -9 13 -21z m179 -18 c-3 -11 -7 -20 -9 -20 -2 0 -4 9 -4 20 0 11 4 20 9
20 5 0 7 -9 4 -20z m-44 -27 c0 -5 -4 -17 -9 -28 -8 -18 -9 -17 -9 8 -1 15 4
27 9 27 6 0 10 -3 9 -7z m-309 -160 c0 -54 -4 -93 -8 -87 -7 12 -4 184 4 184
2 0 4 -44 4 -97z m480 -18 c0 -9 -6 -12 -15 -9 -8 4 -15 10 -15 15 0 5 7 9 15
9 8 0 15 -7 15 -15z m-1200 -26 c0 -11 -4 -17 -10 -14 -5 3 -10 13 -10 21 0 8
5 14 10 14 6 0 10 -9 10 -21z m40 1 c0 -11 -4 -20 -10 -20 -5 0 -10 2 -10 4 0
2 -3 11 -6 20 -4 11 -1 16 10 16 9 0 16 -8 16 -20z m1149 -23 c10 -3 8 -5 -6
-6 -15 -1 -23 -8 -24 -18 0 -14 -2 -14 -9 3 -7 18 -7 39 0 64 1 3 6 -5 12 -17
6 -12 18 -24 27 -26z m-1519 13 c0 -5 -15 -9 -32 -9 l-33 1 30 8 c17 4 31 8
33 9 1 0 2 -3 2 -9z m68 -7 c-9 -2 -19 -12 -21 -21 -3 -12 -5 -10 -6 6 -1 17
4 22 22 21 15 -1 17 -3 5 -6z m753 -17 c30 -2 65 -5 79 -6 l25 -2 -25 -7 c-45
-14 -270 -12 -270 2 0 7 20 13 53 15 28 2 54 8 55 13 3 6 9 6 17 -1 7 -6 37
-12 66 -14z m-24 18 c-3 -3 -12 -4 -19 -1 -8 3 -5 6 6 6 11 1 17 -2 13 -5z
m-512 -34 c-3 -5 -13 -10 -21 -10 -8 0 -12 5 -9 10 3 6 13 10 21 10 8 0 12 -4
9 -10z m141 -25 c1 -8 -1 -15 -6 -15 -10 0 -20 26 -13 34 8 8 16 -1 19 -19z
m114 15 c0 -5 -5 -10 -11 -10 -5 0 -7 5 -4 10 3 6 8 10 11 10 2 0 4 -4 4 -10z
m-460 -27 c0 -5 -18 -8 -39 -8 -22 0 -37 3 -34 8 2 4 20 7 39 7 19 0 34 -3 34
-7z m764 -1 c3 -5 -1 -9 -9 -9 -8 0 -12 4 -9 9 3 4 7 8 9 8 2 0 6 -4 9 -8z
m-694 -22 c0 -5 -2 -10 -4 -10 -3 0 -8 5 -11 10 -3 6 -1 10 4 10 6 0 11 -4 11
-10z m34 -5 c-4 -8 -10 -12 -15 -9 -14 8 -10 24 6 24 9 0 12 -6 9 -15z m372 6
c-9 -13 -129 -23 -191 -16 -96 12 -60 25 71 25 70 0 123 -4 120 -9z m154 -26
c0 -8 -8 -15 -17 -16 -10 0 -39 -3 -64 -5 -37 -4 -48 -2 -53 12 -6 15 -1 16
43 10 30 -4 52 -2 56 4 10 15 35 12 35 -5z m95 2 c2 -7 6 -28 8 -48 5 -33 3
-37 -19 -42 -27 -5 -33 9 -6 16 9 2 4 3 -13 3 -24 -1 -30 3 -30 20 0 11 -6 28
-12 36 -7 8 -10 17 -7 20 10 11 75 6 79 -5z m52 -23 c-3 -3 -12 -4 -19 -1 -8
3 -5 6 6 6 11 1 17 -2 13 -5z m111 -31 c3 -19 -1 -23 -23 -23 -37 0 -65 17
-58 36 4 10 16 14 42 12 29 -2 37 -8 39 -25z m919 -25 c-3 -7 -5 -2 -5 12 0
14 2 19 5 13 2 -7 2 -19 0 -25z m-1391 13 c7 -1 14 -7 17 -13 6 -18 -52 -21
-69 -3 -15 15 -2 25 26 19 8 -1 20 -3 26 -3z m201 -59 c-25 -3 -29 -7 -25 -30
4 -26 3 -27 -49 -27 -29 0 -53 3 -53 8 0 4 16 7 35 7 30 0 35 3 35 23 0 15 -9
28 -22 34 -19 9 -14 11 30 9 41 -1 52 2 52 14 0 9 6 4 13 -10 12 -24 11 -25
-16 -28z m540 16 c-3 -8 -6 -5 -6 6 -1 11 2 17 5 13 3 -3 4 -12 1 -19z m93 7
c0 -9 -6 -12 -15 -9 -8 4 -15 10 -15 15 0 5 7 9 15 9 8 0 15 -7 15 -15z m520
5 c0 -5 -4 -10 -10 -10 -5 0 -10 5 -10 10 0 6 5 10 10 10 6 0 10 -4 10 -10z
m-1525 -29 c3 -5 1 -12 -5 -16 -5 -3 -10 1 -10 9 0 18 6 21 15 7z m1511 -47
c-3 -8 -13 -14 -23 -14 -12 0 -14 3 -6 8 6 4 15 21 19 37 8 28 9 28 12 7 2
-13 1 -30 -2 -38z m-1501 6 c-3 -5 -10 -10 -16 -10 -5 0 -9 5 -9 10 0 6 7 10
16 10 8 0 12 -4 9 -10z m35 -10 c0 -5 -2 -10 -4 -10 -3 0 -8 5 -11 10 -3 6 -1
10 4 10 6 0 11 -4 11 -10z m1060 -130 c18 -12 2 -12 -25 0 -13 6 -15 9 -5 9 8
0 22 -4 30 -9z m-1076 -86 c3 -8 2 -12 -4 -9 -6 3 -10 10 -10 16 0 14 7 11 14
-7z m23 -86 c-2 -13 -4 -5 -4 17 -1 22 1 32 4 23 2 -10 2 -28 0 -40z m1495 10
c-6 -6 -7 0 -4 19 5 21 7 23 10 9 2 -10 0 -22 -6 -28z m-193 -22 c-9 -8 -10
-7 -5 7 3 10 7 24 7 30 1 7 3 4 6 -7 3 -10 -1 -23 -8 -30z m-899 -31 c0 -19
-2 -35 -4 -35 -2 0 -6 16 -8 35 -2 19 0 35 4 35 4 0 8 -16 8 -35z m-87 18 c-7
-2 -19 -2 -25 0 -7 3 -2 5 12 5 14 0 19 -2 13 -5z m-90 -10 c-7 -2 -21 -2 -30
0 -10 3 -4 5 12 5 17 0 24 -2 18 -5z m-116 -45 c-3 -7 -5 -2 -5 12 0 14 2 19
5 13 2 -7 2 -19 0 -25z m1215 -18 c3 -22 -1 -35 -19 -50 -13 -11 -23 -29 -23
-40 0 -11 -5 -20 -10 -20 -9 0 -9 45 0 100 0 3 5 -2 10 -10 7 -12 11 -8 16 18
8 40 20 41 26 2z m143 -10 c54 -22 99 -41 101 -43 8 -7 -136 3 -158 12 -35 13
-36 20 -2 13 19 -3 25 -1 20 7 -4 6 -15 11 -24 11 -27 1 -70 40 -44 40 5 0 53
-18 107 -40z m-398 -22 c-3 -8 -6 -5 -6 6 -1 11 2 17 5 13 3 -3 4 -12 1 -19z
m626 -77 c5 -5 -7 -4 -27 3 -46 16 -59 28 -16 16 19 -5 38 -14 43 -19z"/>
<path d="M2375 1213 c-38 -7 -85 -15 -102 -18 l-33 -6 0 -113 c0 -62 2 -115 4
-117 2 -2 27 -2 55 -1 48 4 51 5 45 28 -5 20 -3 23 11 18 10 -4 15 -14 12 -26
-4 -15 -1 -18 21 -14 15 2 37 5 48 5 21 1 22 4 17 129 -3 70 -6 127 -6 128 -1
0 -33 -5 -72 -13z m-35 -47 c0 -11 -19 -15 -25 -6 -3 5 1 10 9 10 9 0 16 -2
16 -4z m36 -51 c9 -22 -3 -62 -20 -68 -10 -4 -14 4 -14 31 0 20 2 40 5 45 7
12 23 8 29 -8z m-46 -53 c0 -11 -3 -12 -13 -3 -8 6 -17 8 -21 4 -4 -4 -4 0 0
10 3 10 1 17 -6 17 -6 0 -9 4 -5 10 7 12 45 -20 45 -38z m72 -14 c-8 -8 -9 -4
-5 13 4 13 8 18 11 10 2 -7 -1 -18 -6 -23z m-2 -43 c0 -8 -4 -15 -10 -15 -5 0
-7 7 -4 15 4 8 8 15 10 15 2 0 4 -7 4 -15z"/>
<path d="M1150 1157 c0 -10 13 -15 45 -15 25 -1 45 3 45 8 0 6 -8 10 -17 11
-10 0 -30 3 -45 5 -20 3 -28 0 -28 -9z"/>
<path d="M1260 1150 c0 -5 20 -10 45 -10 25 0 45 5 45 10 0 6 -20 10 -45 10
-25 0 -45 -4 -45 -10z"/>
<path d="M1362 1148 c5 -15 88 -24 88 -10 0 5 -14 12 -31 16 -47 9 -61 7 -57
-6z"/>
<path d="M1150 1120 c0 -5 7 -10 15 -10 8 0 15 5 15 10 0 6 -7 10 -15 10 -8 0
-15 -4 -15 -10z"/>
<path d="M1200 1120 c0 -5 7 -10 15 -10 8 0 15 5 15 10 0 6 -7 10 -15 10 -8 0
-15 -4 -15 -10z"/>
<path d="M1245 1120 c-3 -5 3 -10 14 -10 12 0 21 5 21 10 0 6 -6 10 -14 10 -8
0 -18 -4 -21 -10z"/>
<path d="M1295 1119 c-10 -15 1 -23 20 -15 9 3 13 10 10 16 -8 13 -22 13 -30
-1z"/>
<path d="M1340 1115 c0 -8 9 -15 20 -15 24 0 27 15 4 24 -22 9 -24 8 -24 -9z"/>
<path d="M1390 1110 c0 -5 7 -10 15 -10 8 0 15 5 15 10 0 6 -7 10 -15 10 -8 0
-15 -4 -15 -10z"/>
<path d="M1440 1110 c0 -6 7 -10 15 -10 8 0 15 2 15 4 0 2 -7 6 -15 10 -8 3
-15 1 -15 -4z"/>
<path d="M1480 1105 c0 -8 7 -15 15 -15 8 0 15 4 15 9 0 5 -7 11 -15 15 -9 3
-15 0 -15 -9z"/>
<path d="M1190 1091 c0 -11 80 -22 95 -13 5 4 -3 10 -20 13 -45 10 -75 10 -75
0z"/>
<path d="M1300 1078 c0 -4 20 -8 45 -8 25 0 45 4 45 9 0 5 -20 9 -45 9 -25 -1
-45 -5 -45 -10z"/>
<path d="M1681 1073 c-22 -5 -23 -7 -18 -75 3 -38 8 -72 11 -75 3 -4 6 1 6 10
0 16 3 16 35 3 l35 -15 0 29 c0 15 -6 31 -12 33 -10 4 -10 6 0 6 8 1 12 17 12
46 0 48 -3 50 -69 38z m34 -82 c3 -6 -4 -8 -16 -6 -30 6 -37 15 -11 15 11 0
23 -4 27 -9z"/>
<path d="M2748 1292 l-78 -15 0 -82 c0 -45 3 -85 7 -88 3 -4 15 1 25 10 23 20
40 7 32 -25 -6 -21 -24 -31 -24 -13 0 6 -9 9 -20 8 -17 -1 -20 -8 -20 -54 0
-46 3 -53 19 -53 11 0 23 5 26 10 3 6 15 10 25 10 11 0 39 11 63 25 25 13 47
21 51 18 3 -4 6 14 6 39 0 24 -3 47 -6 51 -10 10 -34 -4 -34 -20 0 -8 -5 -13
-11 -11 -6 2 -10 7 -10 11 1 4 1 17 1 30 0 16 3 18 9 8 5 -8 16 -11 30 -6 19
6 21 14 21 86 0 91 9 85 -112 61z m32 -168 c0 -8 -5 -12 -10 -9 -6 4 -8 11 -5
16 9 14 15 11 15 -7z"/>
</g>
</svg>
